<svg xmlns="http://www.w3.org/2000/svg" viewBox="0 0 190 40">
<path fill="#e00f1c" d="M22.9,11.6H20.6v4h2.3Z"/>
<path fill="#e00f1c" d="M20.6,20.5h2.3V16.8H20.6Z"/>
<path fill="#e00f1c" d="M15.4,20.5h2.9V16.8H15.8C15.7,18.1,15.5,19.3,15.4,20.5Z"/>
<path fill="#e00f1c" d="M25.2,27.1l2.4.3h.8c.5-.2.5-.7.6-1.2l.3-3.7c0-.3.1-.5.1-.7H25.2v5.4Z"/>
<path fill="#e00f1c" d="M27.7,11.6H25.2v3.9h2.5Z"/>
<path fill="#e00f1c" d="M34,29.9a6.6,6.6,0,0,0-.1-1.4c0-.4-.1-.8-.1-1.3V25.9c0-.5-.1-.8-.1-1.4a6.2,6.2,0,0,1-.1-1.3c-.1-.3-.1-.9-.2-1.3V20.5c0-.6-.1-.8-.1-1.2a4.9,4.9,0,0,0-.1-1.2V16.9a3.2,3.2,0,0,0,.2-1.4.8.8,0,0,1-.5.8,3.1,3.1,0,0,0,.1-1,3,3,0,0,0,.2-1c0,.1.2.2.2.4a1.9,1.9,0,0,1-.2-.7v-.6c0-.1-.1-.7-.1-1.2S33,11.4,33,11V9.8c0-.4-.1-.8-.1-1.3s-.1-.7-.1-1-.3-.5-.3-.7-.6-.5-.6-.8.4-.9.4-1.2.3-.8.3-1.2l-2.5-.2H28.8c-.4.1-.8-.1-1.2,0a5.6,5.6,0,0,1-1.3,0c-.5.2-.9-.1-1.4,0s-.8.1-1.3,0a3.3,3.3,0,0,1-1.4,0H19.5c-.4-.1-.8.1-1.2,0H17.1l-1.2-.5a2.6,2.6,0,0,0-2.1.4h-1c-.5,0-.9-.2-1.3,0a1.4,1.4,0,0,1-1.4,0,5.6,5.6,0,0,0-1.3,0c-.5-.2-.9.3-1.4,0a1.5,1.5,0,0,1-1.3.1,2.3,2.3,0,0,1-1.4.1l-1.3.2c.1.4.2.6.3,1.1s.1.9.1,1.1a3.4,3.4,0,0,1,.1,1V9.2a4.1,4.1,0,0,1-.1,1.1v.3a13.1,13.1,0,0,0,0,2.8v1.7a2.8,2.8,0,0,0,0,1.8c0,.3-.4.7-.4,1s-.3.8-.3,1.2v5a66,66,0,0,1-.1,7.7,3.3,3.3,0,0,1,0,1,4.8,4.8,0,0,0,0,1.2c0,.3.1.9.3.9a3.1,3.1,0,0,0,1,.5H6.3c.4.1.9-.1,1.2,0s.8-.2,1.1-.1h3.6a5.7,5.7,0,0,0,1.3,0,2.9,2.9,0,0,1,1.3.1h3.8a2.9,2.9,0,0,1,1.3.1h4.8c.4.2.9,0,1.3.1a2.5,2.5,0,0,0,1.2.1h3.3a1.4,1.4,0,0,1,1.1,0c.1.1.3.2.4,0s.4.2.5-.1.1.1.1-.1l.3-.4c.1.2.2-.2.2-.2s.1-.8.2-.7.1-.1.1-.5v-.4s.1-.6.1-.8a2.5,2.5,0,0,1,.1-.8v-.8a2.2,2.2,0,0,0,.4-1.4ZM10.8,15.7v13c0,1.2.1,2.4.1,3.6s0,.5-.3.6l-1.3.6c-.2.2-.5.1-.9.2s.1-1,.1-1.4V15.5a16.3,16.3,0,0,1-1.1,1.7,22.6,22.6,0,0,1-2.3,3.1c-.1.2-.5.2-.8.1a.6.6,0,0,1-.2-.9l1-2a38.4,38.4,0,0,0,2.1-4c.6-1.3,1.1-2.6,1.6-3.8s.9-3,1.4-4.4a.6.6,0,0,1,.9-.4l2.3,1.4c.2.1.2.7,0,.8a2.2,2.2,0,0,0-1.2,1.3c-.7,1.5-1.5,2.9-2.2,4.3l1.1.6c.4.2.5.8.2,1s-.5.8-.5,1.4Zm21.4,6.2a.9.9,0,0,0-.6,1c-.2,1.6-.3,3.3-.6,5a3.5,3.5,0,0,1-2.3,2.6.7.7,0,0,1-1-.4,3.2,3.2,0,0,0-1.8-1.6l-.7-.2a16.9,16.9,0,0,0,.1,2.3v.8A1.6,1.6,0,0,1,24.1,33c-.4.1-.8.5-1.2.3,0-3.9,0-7.8.1-11.6H20.4l-.3,2.2a13.9,13.9,0,0,1-1.7,4.4,13.6,13.6,0,0,1-5,4.5c-.5.3-.9.7-1.6.6s-.3-.1-.4-.4.2-.7.6-.9a18.3,18.3,0,0,0,4.4-4.8,11.5,11.5,0,0,0,1.5-4.4l.3-1.3a24.3,24.3,0,0,0-2.7,0c-.2,0-.4.3-.6.6l-.4.5c-.1.2-.7.2-.9.1l-1.2-1.1c-.3-.4-.3-.8.1-1s.7-1.2.8-1.8l.3-3.2V14.5a1.2,1.2,0,0,1,1.2.2,3,3,0,0,0,2.7.8h.9v-4h-.8a12.3,12.3,0,0,0-3.3.3.8.8,0,0,1-1-.3c-.3-.3-.7-.6-.5-1.2h5.6V4.6l.8.2,2.2,1a.6.6,0,0,1,.2.8.1.1,0,0,0-.1.1,1.8,1.8,0,0,0-.8,2v1.6H23c-.1-1.8-.1-3.6-.2-5.5a1.5,1.5,0,0,1,.9.2,17.6,17.6,0,0,1,2,.9c.3.1.5.7.2.9s-.7,1.1-.7,1.8v1.8h2.7l.7-.7a.7.7,0,0,1,1.2,0l1,1c.4.4.4.8,0,1.1h-.2a.7.7,0,0,0-.5.9,22.9,22.9,0,0,0,.1,3.7,1.3,1.3,0,0,1-.9,1.5,2.7,2.7,0,0,1-1.4.4V16.8H25.2v3.7H29l.5-.2.6-.6a.7.7,0,0,1,1.2,0,9.4,9.4,0,0,0,1,1c.4.4.4.8-.1,1.2Z"/>
<path fill="#e00f1c" d="M21,14.8a.4.4,0,0,0-.7.1Z"/>
<path fill="#e00f1c" d="M14.4,15.8c-.2-.1-.4,0-.7.1Z"/>
<path fill="#e00f1c" d="M19.1,18.5a4.9,4.9,0,0,1,.1-1.2h.6a2.3,2.3,0,0,0-.7,1.1Z"/>
<path fill="#e00f1c" d="M29.6,15.4h0Z"/>
<path fill="#e00f1c" d="M13.6,17.7c0,.1-.1.2-.1.3l.4.5a1.9,1.9,0,0,1-.3-.8Z"/>
<path fill="#e00f1c" d="M23,20.7h0Z"/>
<path fill="#e00f1c" d="M25.7,15.4c.4.6.9.9,1.1-.1S26.4,15.5,25.7,15.4Z"/>
<path fill="#e00f1c" d="M17.7,27.1l-.3.4v.2c.4-.3.7-.7.4-1s-.2.3-.2.4Z"/>
<path fill="#e00f1c" d="M19.3,5.5l.7.2a6.1,6.1,0,0,0-1.6-.9C18.8,4.9,19,5.2,19.3,5.5Z"/>
<path fill="#e00f1c" d="M33.4.4c0,.2-.1.5-.2,0s-.2.2-.4,0-.4.6-.8,0-.6-.1-.9,0-.8.2-1.2,0H28.6a2.6,2.6,0,0,0-1.5,0,4.3,4.3,0,0,1-1.6,0H23.7a3.7,3.7,0,0,1-1.8,0A4.1,4.1,0,0,1,20,.4c-.6-.3-1.2,0-1.9,0S16.9.1,16.3.4a6.1,6.1,0,0,0-1.9,0c-.6-.1-1.2.3-1.8,0H10.8A4.3,4.3,0,0,1,9.2.4,1.9,1.9,0,0,0,7.7.4C7.2.6,6.8.2,6.4.4S5.6.6,5.2.4s-.7.2-.9,0-.6.3-.8,0S3.2.2,3.1.4,2.9.2,2.9.4,2.2,0,2,.6s-.6.2-.8.6A9.2,9.2,0,0,0,.7,2,1.9,1.9,0,0,0,.5,3h0V35.4h0a2.2,2.2,0,0,0,.2,1c.1.3.3.9.5.8l.8.5c.2.2.6,0,.9.2s.1-.2.2,0,.2,0,.4,0,.4.2.8,0,.6.1.9,0,.8,0,1.2,0,.8.2,1.3,0,1-.1,1.5,0h1.6a10.8,10.8,0,0,0,1.8,0,2.8,2.8,0,0,0,1.8,0c.6.2,1.3-.1,1.9,0a10.8,10.8,0,0,1,1.8,0H20a3.1,3.1,0,0,1,1.9,0c.6.1,1.2-.1,1.8,0a5.4,5.4,0,0,0,1.8,0c.5.1,1.1-.2,1.6,0a3.8,3.8,0,0,0,1.5,0,5.6,5.6,0,0,0,1.3,0H32a2.1,2.1,0,0,0,.8,0c.2,0,.3.1.4,0h.2a1.5,1.5,0,0,1,.9-.2c.3-.2.6-.1.8-.6a1.8,1.8,0,0,0,.6-.8V2.2h0c-.2-.4-.3-.8-.6-.9s-.4-.9-.8-.6S33.7.3,33.4.4ZM35,9.1c0,.4-.1.4-.1,1.2a4.5,4.5,0,0,1-.1,1.2,3.5,3.5,0,0,0-.1,1.2,5.5,5.5,0,0,1-.2,1.2,4.1,4.1,0,0,0-.1,1.2v3.6a1.3,1.3,0,0,1-.1.6,4.9,4.9,0,0,0,.1,1.2c0,.4.1.8.1,1.2a4.5,4.5,0,0,0,.1,1.2,5.7,5.7,0,0,1,.1,1.2,4.9,4.9,0,0,1,.1,1.2s.1.9.1,1.1v1.1c0,.4.1.7.1,1v3.1a3.4,3.4,0,0,1-.1,1.1c0,.5,0,1.1-.1,1.1a9.3,9.3,0,0,1-.3,1,1,1,0,0,1,.2.7c0,.5-.1.3-.4.7a1.7,1.7,0,0,1-1,.6c-.3.3-.7.2-1.1.4H31c-.4.1-.8-.1-1.2,0H26.3a1.1,1.1,0,0,0-1.1,0H24a2.1,2.1,0,0,1-1.1,0c-.4-.1-.8.1-1.2,0s-.7.1-1.1-.1-.8,0-1.2,0a1.4,1.4,0,0,0-1.1-.1c-.4-.1-.8-.3-1.2-.1a4.1,4.1,0,0,1-1.1,0c-.4,0-.8.2-1.2-.1H13.7a4.1,4.1,0,0,0-1.1,0,1.7,1.7,0,0,1-1.2,0,1.3,1.3,0,0,1-1.2,0H7.8a1.7,1.7,0,0,0-1.2,0,5.7,5.7,0,0,1-1.3,0h-1l-1-.3a1.8,1.8,0,0,1-.9-.4c-.3-.4-.6-.2-.8-.7s-.3-.8-.4-1-.1-.9-.1-1.2V31.7c.1-1.2.3-2.4.3-3.6.1-2.9.2-5.9.2-8.8V14.4a4.5,4.5,0,0,1,.1-1.2A5.7,5.7,0,0,1,1.8,12V10.8c0-.3.1-.7.1-1.2S2,8.7,2,8.3V7.1a4.5,4.5,0,0,0-.1-1.3,7.1,7.1,0,0,0-.2-1.2,5.3,5.3,0,0,1-.4-1.1A1.8,1.8,0,0,1,1.2,3V2.6c.1-.1.2-.7.3-.5a.9.9,0,0,0,.6-.4c.4-.3.8-.1,1.3-.2s.9-.3,1.3-.2.9-.1,1.3-.2.8.2,1.2,0A2,2,0,0,0,8.5,1,5.7,5.7,0,0,0,9.8,1c.4-.3.9.1,1.3,0s.9-.2,1.3,0,.8-.3,1.2,0,.9.1,1.3,0,.9,0,1.3,0,.9.1,1.3,0h1.2c.4,0,.8-.2,1.2,0a2.4,2.4,0,0,0,1.2,0h1.2c.4.1.8-.1,1.2,0s.9-.3,1.3,0S25.6.9,26,1s.8.1,1.2,0a4.8,4.8,0,0,0,1.2,0h2.5c.4.1.8-.2,1.2.2h1.2a8.1,8.1,0,0,1,.8.6c.1.5,0,.5-.1.9l.2.6a.9.9,0,0,1,.1.5c.1.5.2.3.2,1.1a4.9,4.9,0,0,1,.1,1.2V7.5A2.6,2.6,0,0,1,35,9.1Z"/>
<path fill="#d58245" d="M16.5,17.7c0-.3,0,0-.1-.4h-.1c.1.2,0,.1,0,.4s0-.1.2-.1-.2.1,0,.1Z"/>
<path fill="#d58245" d="M26.7,20.9c-.1,0-.1-.1-.1-.2s0,.2-.2.2.1-.1,0-.1h0c0,.1,0,.4.2.3s.1,0,.1-.2Z"/>
<path fill="#d58245" d="M11,21.2c.1.2,0,.1.1.3s.1-.3.2,0-.2-.4-.2-.2S11.1,21.1,11,21.2Z"/>
<path fill="#d58245" d="M26.5,21.4c-.1.1-.1,0-.1,0s0,.6.2.6h-.2C26.5,21.7,26.6,21.6,26.5,21.4Z"/>
<path fill="#d58245" d="M26.4,21.7c0-.2-.1-.1-.2,0s.1,0,0,.1,0,.1-.1.1.1.2.1.2h.2c0-.1-.2-.1-.2,0s.2,0,.1-.1-.1,0-.1-.2Z"/>
<path fill="#d58245" d="M27.4,24.6c0-.1-.2-.3-.2-.3S27.4,24.7,27.4,24.6Z"/>
<path fill="#d58245" d="M26.3,25.6h-.1v-.3h0C25.8,25,26.3,26.1,26.3,25.6Z"/>
<path fill="#d58245" d="M12.4,27.2c-.1-.3-.2-.2-.2-.5S12.2,27.2,12.4,27.2Z"/>
<path fill="#d58245" d="M12.9,27.1c0,.2-.1,0-.2.2h.1v.3C12.9,27.8,13,27.3,12.9,27.1Z"/>
<path fill="#d58245" d="M16.9,27.8a.4.4,0,0,0-.2-.4C16.7,27.6,16.8,27.8,16.9,27.8Z"/>
<path fill="#d58245" d="M20.2,28.9c.1-.1.1-.4,0-.3S20.1,28.9,20.2,28.9Z"/>
<path fill="#d58245" d="M20.4,28.6V29h0c0-.1-.2.1-.1.1s.1,0,.2.1.1-.3.1-.5Z"/>
<path fill="#d58245" d="M31.9,29.5c.2,0,0-.1.1-.3S31.8,29.6,31.9,29.5Z"/>
<path fill="#d58245" d="M20.6,29.8c-.2.1-.3-.1-.4.2s.2.1.2,0h0Z"/>
<path fill="#d58245" d="M7.7,31.3c-.1,0,0-.2,0-.2S7.3,31.3,7.7,31.3Z"/>
<path fill="#d58245" d="M9.3,31.4c0,.1.1-.2,0,0s.2.2.2.3,0,.2.1,0-.1,0-.1-.1-.1-.4,0-.5,0,.1-.2.3.1.1.1-.3H9.3C9.4,31.1,9.3,31.4,9.3,31.4Z"/>
<path fill="#d58245" d="M9.6,31.7h0C9.7,31.7,9.7,31.9,9.6,31.7Z"/>
<path fill="#d58245" d="M9.4,31.9c-.1-.2-.1,0-.1,0s.1-.2,0-.2.1.8.1.2Z"/>
<path fill="#d58245" d="M6.4,32.9h0c0-.1-.1-.1,0-.1h0c-.1.1-.1.2,0,.2s-.1.1-.2,0v.2c.1,0,.1-.1.1,0s-.1.2.1.2,0-.1,0-.4Z"/>
<path fill="#d58245" d="M13,32.9c.1.1,0,.1,0,.4S13.2,32.9,13,32.9Z"/>
<path fill="#d58245" d="M10.1,33.3c-.1,0-.1-.2-.2-.2H9.7C9.8,33.3,9.9,33.5,10.1,33.3Z"/>
<path fill="#d58245" d="M4.7,33.5v-.2S4.5,33.6,4.7,33.5Z"/>
<path fill="#d58245" d="M13.5,33.7c-.1,0,0-.2-.2-.2s0,.3.1.4h0c0,.1.2.2.1-.1Z"/>
<path fill="#d58245" d="M31.2,33.9c.1.2.1.2.2.1s-.3-.3-.3-.3v.4h.1c0-.3-.1-.2,0-.2Z"/>
<path fill="#d58245" d="M9.7,34.1c0-.2,0,.1-.1,0v-.2s.1.2.1,0h0c-.4,0-.3.4,0,.3Z"/>
<path fill="#d58245" d="M16,17.2h.4c0-.2-.1-.3-.1-.6s0-.2-.2-.1h0s-.2-.1-.2.1,0,.3,0,.3,0,.1.1.3Z"/>
<path fill="#d58245" d="M5.3,17.4c.1.3.1.4.3.4s0-.3.1-.3-.1-.1-.2-.2,0-.1-.1.2-.1-.2-.1-.1Z"/>
<path fill="#d58245" d="M13.6,17.6a.3.3,0,0,0-.1-.2c0,.3-.1.3-.3.1s.2,0,.2-.1-.2-.1-.3.1.1-.1.1,0,0,.4-.1.4h0c.1,0,.1.3.2.1s-.1-.3,0-.3.1.1.1,0,0,.1-.1.2.1.1.1,0S13.4,17.6,13.6,17.6Z"/>
<path fill="#d58245" d="M13.1,21.4c0-.2.1-.1,0-.2a.1.1,0,0,1,.1.1c.2,0,0-.4-.2-.2S13.1,21.5,13.1,21.4Z"/>
<path fill="#d58245" d="M11.3,21.5c-.2.2,0,.2-.2.2h0V22H11c.1-.2-.1.4.1.4s.2-.3,0-.2.1.4.1.2,0-.1.1-.3.1.1.2-.1v.2c.1-.1.3.1.3,0h0c0-.4-.1-.2,0-.6s0-.4-.1-.2h-.1c0,.2.1.1,0,.2s0-.5-.1-.4h.2c-.1-.2-.1.4-.2,0h0c.1.3.2.2.2-.2s-.1,0-.1.2-.2-.3-.1-.2-.2-.2-.2-.1.3.5.1.7Z"/>
<path fill="#d58245" d="M28.1,21.5c0-.1.1,0,0,0s0-.2-.1-.1a.1.1,0,0,1,.1.1c-.1,0-.2.1-.3,0s.2.2.2.1-.1-.1-.2,0h.1c-.3.1-.2,0-.1-.2s-.2.2-.3.4h-.1c.2.2,0,.4.2.5h-.1c0,.1.1.1.1.2s.1-.3.2-.1.1-.4.3-.2v-.4s-.1.1-.1,0h0c.1,0,.1-.4.1-.4Z"/>
<path fill="#d58245" d="M10.9,22.5c.1,0,.1-.1.1-.3s-.1.1-.1,0,.2-.4.1-.3A.7.7,0,0,0,10.9,22.5Z"/>
<path fill="#d58245" d="M26.3,22.4c-.1.1-.1-.1-.1.1h0v.2s.1.1.1-.2Z"/>
<path fill="#d58245" d="M13.6,24.2h0c.1-.1.3-.2.2-.5s-.2.1-.1-.1a.5.5,0,0,0-.1.3c-.2-.3-.3.7,0,.4Z"/>
<path fill="#d58245" d="M24.2,24.2H24s.1.2,0,.2h-.1a3.5,3.5,0,0,0-.1.6h0s.1.2.1.1.1-.1.2-.2-.1-.1-.1-.1.1.2.2,0,0-.2-.1-.2.1-.1.1-.3Z"/>
<path fill="#d58245" d="M25.3,24.3c-.1,0-.1.2-.2.2a.1.1,0,0,1-.1-.1c.1.1.2.1.1-.1H25v.4c0-.3.2.2.2,0S25.4,24.4,25.3,24.3Z"/>
<path fill="#d58245" d="M21,28.8Z"/>
<path fill="#d58245" d="M21,28.9h0c-.2,0-.1.2-.1.4a.8.8,0,0,0,.1-.4Z"/>
<path fill="#d58245" d="M14.3,34.3h.5v.2c0,.1.1,0,.1,0s.2-.2.2-.1,0-.1,0-.2.1-.1.2,0a.1.1,0,0,1-.1.1.3.3,0,0,0,.3-.3.1.1,0,0,1-.1.1c-.1-.3.2-.3.1-.1s.2-.2.2-.4-.1.1-.1,0,.1,0,.1-.1-.2,0-.4,0-.1-.2-.1-.2.3-.2.4-.1-.1.1-.1.2,0-.4.3-.2,0-.1,0-.3-.1.2-.3,0v.2h0c0,.1,0,.1-.1.1s0-.1.1-.1h-.1a.1.1,0,0,1-.2,0H15c0,.1-.1-.1-.1,0h0c-.1-.1-.1.1-.1,0s0,.2-.1.2,0-.1-.1-.1.1.2.1.4v.3c0,.1-.1,0,0,.1a.1.1,0,0,1-.1.1v-.2c-.3.1.2.5.1.2l.2.3c-.2,0-.2-.1-.4-.2v0c-.1,0-.1,0-.1.1s-.1.1-.1.1Z"/>
<path fill="#d58245" d="M13.5,34.3c0,.1.1-.1.1-.1s0,.1-.1.1h.1c0-.1.1-.2.1-.1s0,.2-.1.1h.2c.1-.1.2.1.4,0H14V34c-.1.1-.1.1-.2,0v.2s-.1-.1-.1,0-.4-.2-.5,0Z"/>
<path fill="#d58245" d="M16.1,30.9h.2c0-.2-.1-.1,0-.2s-.1.1-.2,0h0l-.4.3h-.8V31h0c-.2,0-.1.2-.3.1h0s0,.3-.1.2h-.1c0-.2,0,.2-.1.4a.5.5,0,0,1,.1-.6c-.2,0,0-.3-.1-.2s.1-.1.1-.1-.2-.1-.4,0h-.4c0-.1.1.1.2.1h-.3c0,.1-.1.2-.1,0s.1.1.2.2,0,.3.1.3h0s-.1-.1.1-.2.3-.1.2.2-.1-.1,0,.2-.1,0-.1,0,0-.1,0-.1-.1.2-.1.4h0V32c.1,0,.1-.1,0-.2s.1-.1.1,0V32c.1-.3.1-.2.2,0s.1.4-.1.4a.1.1,0,0,1,.2,0h-.1c.1-.1.1-.3.2,0s.1.1.1,0,0,.3.1.1.1-.2.1-.1.1-.1.1-.1H15c-.1.1,0-.2-.2,0v-.2c-.2.1-.1-.4-.1-.5h0s-.1-.3,0-.3h0c0-.1.1-.1.1,0h0V31h0v-.2l.3.3c0-.1-.3.2-.3.2s.3,0,.5-.1,0-.1,0-.3.1,0,.1,0a.1.1,0,0,1,.1-.1h0s.2-.2.2.1h0V31h0c.3-.1.1.3,0,.4s.3-.1.4-.2h-.2c.1-.1.1-.2.2-.1s-.1-.2-.2-.2,0,.2,0,.2-.2-.4,0-.3.1.1.2.1Z"/>
<path fill="#d58245" d="M16.5,30.9l.2-.2c0,.1.1.2.1.3s-.2-.1-.3.1l-.2-.2c0,.1.2.3.3.2v.2c-.1.2.3,0,.2.2s.1,0,.1,0,.4.2.4,0-.3,0-.2-.2-.2.1-.2-.1.2,0,.2-.1.2.2.2.4-.2-.6,0-.6.2.2.2,0-.2,0-.1-.2-.1-.2-.3-.2H17c.2-.2-.2-.4.1-.5v-.2h.2c0-.2-.1-.1-.1,0s.1-.1.1-.2.1,0,.1.1-.1-.1-.2-.2.1-.4-.1-.4.1.3,0,.3-.2.2-.1.2-.1-.2-.1-.2.1.1.1,0,0-.1.1,0-.2-.3-.4-.2,0,.4.1.6-.3-.2-.1-.3-.2.3-.3.1h0c.1-.1.1,0,.2.1h-.1c.2,0,.1.1.2,0v.2c0-.1-.2,0-.1-.2s-.1.2-.2.2h.2c0,.3-.3,0-.3.2s.1,0,.1.2a.1.1,0,0,1-.1-.1c0,.1,0,.4.1.2s.2,0,.2-.1v.2s.1.2,0,.2Z"/>
<path fill="#d58245" d="M32,29.5c0,.1.1.2.1.3H32a.2.2,0,0,0,.2-.2h0C32.2,29.4,32.2,29.8,32,29.5Z"/>
<path fill="#d58245" d="M32,29.7c0,.1-.2-.1-.2.1s.1.2,0,.1v-.2c0,.2,0,.4.1.4s.1,0,.1-.4Z"/>
<path fill="#d58245" d="M15.5,32.3h-.1s-.1-.4,0-.3h0c-.1.1-.1-.1-.2-.1s-.2,0-.3.1.2.2.4.1,0,.1-.1.1a.4.4,0,0,1,.1.3c.1,0,.2.1.2-.1Z"/>
<path fill="#d58245" d="M17.3,32.1v-.2h-.1c-.1.1-.1-.1-.2,0s.1-.1.1.2h0c.1,0,.2-.1.2.1Z"/>
<path fill="#d58245" d="M17,32.5c.1.1.1,0,.1,0v.2c.2-.2.1-.4,0-.4h.2c-.2-.2-.1-.2-.2,0s-.2.1-.1.2Z"/>
<path fill="#d58245" d="M15.9,31.9h-.2c0,.2.2.2.1.4h.3c-.2,0-.2-.1-.3-.2s.1-.1.1-.2Z"/>
<path fill="#d58245" d="M11.6,32.7c0,.1-.1-.1-.1,0s.1-.3,0-.1,0-.2-.1-.1,0,.3,0,.3Z"/>
<path fill="#d58245" d="M9.1,33.3a.2.2,0,0,0,0-.3c0,.1.2-.1.1-.1s0-.1-.1-.2h0C8.9,32.9,9.1,32.9,9.1,33.3Z"/>
<path fill="#d58245" d="M7.8,34.2c.1.1.2-.1.2-.1H7.9v.1Z"/>
<path fill="#d58245" d="M33.8,37.4c-.1,0-.2-.1-.2,0s0,.2-.2.2h0c0,.1,0,.3.1.3s-.1-.2-.1-.2.2,0,0,0a.1.1,0,0,1,.1.1c.1-.2.1-.5.3-.3v-.2Z"/>
<path fill="#d58245" d="M28.4,34.8c-.1-.1-.4-.2-.4-.4s-.4-.3-.6-.3-.3-.2-.4,0-.3,0-.4.3H27c.2,0,.4.3.4.1h.5C28,34.9,28.2,35,28.4,34.8Z"/>
<path fill="#d58245" d="M20,30c.2.1.2-.1.2-.1h0c-.2,0-.1-.2-.2-.4S19.9,29.9,20,30Z"/>
<path fill="#d58245" d="M8.1,32.8c.1-.3,0-.3-.1-.3A.8.8,0,0,0,8.1,32.8Z"/>
<path fill="#d58245" d="M5.6,34.2c.1-.1.2,0,.2-.2a.1.1,0,0,1-.1-.1v-.2c0,.1-.2.3-.1.1s.2.3.1.4Z"/>
<path fill="#d58245" d="M22.1,34.1s0,.2.1.2.1-.3,0-.4.1.1.1,0h0c-.2-.2-.2,0-.3.2s0-.1-.1,0v.2C22,34.2,22,34.1,22.1,34.1Z"/>
<path fill="#d58245" d="M21.2,27.3l-.2.3C21.1,27.7,21.1,27.5,21.2,27.3Z"/>
<path fill="#d58245" d="M21.2,27.3h0Z"/>
<path fill="#d58245" d="M31.4,34.8v0Z"/>
<path fill="#d58245" d="M31.4,34.3c0-.2-.1.3-.1.3S31.5,34.5,31.4,34.3Z"/>
<path fill="#d58245" d="M27.3,22.7a1.5,1.5,0,0,0-.2.4c-.1,0-.1-.2-.1-.2h-.3c.1.2-.1.2,0,.3s.1-.2.1,0,0,.3-.1.3h.1c-.2,0-.2-.3-.3-.1v-.3c-.4.1.1.4-.2.4s-.3-.1-.2,0,.2,0,.2.1-.2.1-.2.2.1-.2,0-.1-.1.3,0,.4-.1-.1-.1,0,0,0,0,.1h0a.4.4,0,0,0-.1-.3c0,.3-.1,0-.1.1s.1.1,0,.1.1,0,.1.1.1.2.1.3-.1,0-.1.1h.2c.1-.1-.1-.1,0-.3s.1.2.1.1,0,.4.1.6-.1-.1-.1,0,0,.2,0,.3.2.2.2,0v-.2c.1.3.4.2.2,0s.2,0,.2-.2-.2.1-.2,0,.1.4.4.4,0-.1.1-.1a.6.6,0,0,1-.3-.5c0,.2,0,.1.1.2s-.1-.2-.1-.3.1.1.2,0,0-.1-.1-.1-.2-.1-.4-.2h.2c.1,0,.1.1,0,.2s.2-.2.1-.3h-.1c-.1-.4.1-.3.1-.7s-.2.1-.2,0,.2-.1.4,0v-.2c0-.1-.2,0-.2,0l.4-.2c.2,0,.2-.2.1-.4Z"/>
<path fill="#d58245" d="M14.8,32.9a4.3,4.3,0,0,0-.1-.5A1.1,1.1,0,0,0,14.8,32.9Z"/>
<path fill="#d58245" d="M14.4,31h.2C14.6,30.9,14.5,31.1,14.4,31Z"/>
<path fill="#d58245" d="M16.7,30.5s-.5.2-.5.3S16.5,30.7,16.7,30.5Z"/>
<path fill="#d58245" d="M13.7,34h.1c0-.1-.1-.4-.1-.3V34Z"/>
<path fill="#d58245" d="M13.6,33.7h.1C13.7,33.9,13.7,33.8,13.6,33.7Z"/>
<path fill="#d58245" d="M15.7,31.1h.1C15.7,31,15.7,31,15.7,31.1Z"/>
<path fill="#d58245" d="M15.5,31.2c0-.1.1-.2.2-.1h-.2Z"/>
<path fill="#d58245" d="M14.4,31.2v.2A.1.1,0,0,0,14.4,31.2Z"/>
<path fill="#d58245" d="M14.4,31.2v0Z"/>
<path fill="#d58245" d="M7.8,31.9l.2-.6C7.8,31.3,7.8,31.7,7.8,31.9Z"/>
<path fill="#d58245" d="M9.9,31.9v-.2C9.7,31.3,9.8,32,9.9,31.9Z"/>
<path fill="#d58245" d="M10.8,33.1c0-.1,0-.2-.1-.2S10.8,33.1,10.8,33.1Z"/>
<path fill="#d58245" d="M5.7,33.3,5.3,33C5.5,33.1,5.6,33.4,5.7,33.3Z"/>
<path fill="#d58245" d="M20.2,33.8c0,.3.2-.3.2-.2Z"/>
<path fill="#d58245" d="M20.2,34.1v-.2c0-.2-.2.4-.2.4l.2-.2Z"/>
<path fill="#d58245" d="M12,33.4c0-.1-.1.6-.1.6A.7.7,0,0,0,12,33.4Z"/>
<path fill="#d58245" d="M8.5,33.9s-.3.1-.3,0S8.5,34.2,8.5,33.9Z"/>
<path fill="#d58245" d="M8.1,33.7c0,.1.1.2,0,.2s.2,0,.2,0Z"/>
<path fill="#d58245" d="M9,33.9c0,.2-.3-.1-.3,0S8.9,34.1,9,33.9Z"/>
<path fill="#d58245" d="M8.6,33.8h0c0-.1.1-.1.1,0S8.7,33.9,8.6,33.8Z"/>
<path fill="#d58245" d="M30.7,34.6c0-.1.2.2.2.1S30.9,34.3,30.7,34.6Z"/>
<path fill="#d58245" d="M13.2,19.2c0,.1-.2.5,0,.5S13.2,19,13.2,19.2Z"/>
<path fill="#d58245" d="M10.7,33.4Z"/>
<path fill="#d58245" d="M10.7,33.4c0,.1-.4.1-.4,0S10.6,33.4,10.7,33.4Z"/>
<path fill="#ffffff" d="M30.1,16v.3C30.3,16.3,30.2,16.3,30.1,16Z"/>
<path fill="#ffffff" d="M29.7,15.9c0-.1,0,.2.1,0h-.1s.1,0,.1-.2S29.6,15.5,29.7,15.9Z"/>
<path fill="#ffffff" d="M30.9,14.9c.1,0,.2-.2.4.1s-.2.1-.1-.1,0-.1.1,0-.1-.1-.2-.1Z"/>
<path fill="#ffffff" d="M35.4,14.6c0,.3.1-.1,0,0s.1.2.1.1h-.1c0,.4.1.3.1.1h.1c-.1-.1-.1.4-.1,0s.1-.1,0-.1S35.4,14.4,35.4,14.6Z"/>
<path fill="#ffffff" d="M31.6,15.3c.1.4.1.2.2.1s-.2.2-.1-.2-.1,0-.1,0Z"/>
<path fill="#ffffff" d="M31.5,13.5c.1-.4,0,.2.1.2v-.2c0-.2-.1,0-.2,0s.1,0,.1,0Z"/>
<path fill="#ffffff" d="M11.1,37.8v.4h.2c-.1-.2,0-.2.1-.4s-.1.2-.2.1.1-.1-.1-.1Z"/>
<path fill="#ffffff" d="M19.5,28.6c.1-.3.2.1.3-.1h-.1a.8.8,0,0,0,.1-.3C19.6,28.1,19.4,28.3,19.5,28.6Z"/>
<path fill="#ffffff" d="M24.2,26.9l.6.3c-.1-.3.2-.1.4-.1s-.4-.3-.6-.4a.3.3,0,0,1-.1.2c-.1-.1,0-.2-.2-.2s-.1.1-.1.2Z"/>
<path fill="#ffffff" d="M22.2,25.9a.4.4,0,0,0,.6.3h0c.1-.3-.2-.1-.4-.3S22.4,26.1,22.2,25.9Z"/>
<path fill="#ffffff" d="M24.7,25.9c.3.4.7-.4.1-.4s.2.2.2.4S24.8,25.8,24.7,25.9Z"/>
<path fill="#ffffff" d="M28.6,26.3c.1,0-.1.2-.1.2S29.1,26.5,28.6,26.3Z"/>
<path fill="#ffffff" d="M26.2,25.3h0s0-.4-.1-.4H26c-.1.1.1.1.1.2s0,.5-.1.6.1-.2.2-.2,0,.1-.1.2h.1C26.1,25.5,26.2,25.5,26.2,25.3Z"/>
<path fill="#ffffff" d="M26.2,24.8c.2.1.2-.1.2-.1s-.1.2.1.4-.1-.8-.3-.3Z"/>
<path fill="#ffffff" d="M31.1,24.9c.3,0,0,.1,0,.1s.1,0,.1.1-.1-.1-.1,0v.3c.1-.1.1-.3,0-.3a.1.1,0,0,1,.2,0v-.2h-.1c-.1,0,.1-.2,0-.2S31.1,24.7,31.1,24.9Z"/>
<path fill="#ffffff" d="M25.8,22.8c.2,0,.1.2.2.3h.4C26.2,23,26,22.7,25.8,22.8Z"/>
<path fill="#ffffff" d="M26.6,22c0,.1.2.1.2.1v.2h-.2c.1,0,0,.1,0,.2S27.1,21.9,26.6,22Z"/>
<path fill="#ffffff" d="M29,21.4a.1.1,0,0,1,.1.1c.1-.4-.2-.1-.2-.4s0,.2,0,.5,0-.1.2-.1-.2,0-.1-.1Z"/>
<path fill="#ffffff" d="M11.6,38.6c-.1.2-.4-.2-.5-.2s.1.4-.1.6,0,.5.2.2-.1.2,0,.2.2,0,.3,0-.1-.4,0-.4.3-.2.1-.4Z"/>
<path fill="#ffffff" d="M15.4,39.3a.4.4,0,0,0,.1.3.2.2,0,0,1,.4-.1c-.2.1-.2-.1-.4.1s.4.3.6,0-.2.1-.2,0,.1-.4.3-.4h.1c-.2-.2,0-.2-.3-.2s.1.3-.1.4-.1-.1-.1-.2.1-.1.1-.2h-.2c.3.3-.1.5-.3.4Z"/>
<path fill="#ffffff" d="M23.4,26.9l.5.2c.2-.2-.4-.2-.2-.4h-.1c.1,0,0,.1,0,.1S23.4,26.7,23.4,26.9Z"/>
<path fill="#ffffff" d="M27.4,23.3c-.3,0-.3.2-.2.4H27c.2,0,0,.2,0,.3h.1a.1.1,0,0,1,.1-.1h-.1c.4-.2.1-.3.3-.6Z"/>
<path fill="#ffffff" d="M29.5,22.9c-.1-.3-.4,0-.4,0h.2v.3c0-.1,0-.2.2-.3Z"/>
<path fill="#ffffff" d="M26.8,20.8c-.2.1-.4.2-.4,0Z"/>
<path fill="#ffffff" d="M26.4,20.8c-.1.1-.2.1-.2.3Z"/>
<path fill="#ffffff" d="M28.9,28.5c-.1,0-.3-.2-.3.1s.3.1.5-.2S28.9,28.5,28.9,28.5Z"/>
<path fill="#ffffff" d="M29.1,21.7V22C29.4,22.2,29.4,21.7,29.1,21.7Z"/>
<path fill="#ffffff" d="M26.8,21.1c.2-.2.3.1.5.1S26.9,20.7,26.8,21.1Z"/>
<path fill="#ffffff" d="M28.5,25.5l-.4.6C28.5,26.1,28.7,25.8,28.5,25.5Z"/>
<path fill="#ffffff" d="M25.5,24.5v.2C25.8,25,25.8,24.2,25.5,24.5Z"/>
<path fill="#ffffff" d="M28.3,22.8h.3C28.5,22.7,28.5,22.5,28.3,22.8Z"/>
<path fill="#ffffff" d="M28.8,23.2c.1-.1,0-.2.1-.2h-.2a.4.4,0,0,0,.1.3Z"/>
<path fill="#ffffff" d="M27.6,22.6H28C27.9,22.6,27.8,22.5,27.6,22.6Z"/>
<path fill="#ffffff" d="M28.2,22.9c0-.1.1-.1.1-.2H28Z"/>
<path fill="#ffffff" d="M16.4,37.6c.2-.1.5-.4.3-.6Z"/>
<path fill="#ffffff" d="M24.9,22.3l.5.2C25.2,22.3,25.1,22.4,24.9,22.3Z"/>
<path fill="#ffffff" d="M9.7,34.1c0,.2.1.2.2.3h0v-.2c-.1,0,0,.1-.1.1a.1.1,0,0,0-.1-.1Z"/>
<path fill="#ffffff" d="M11.2,26.4l.3.3C11.6,26.5,11.3,26.4,11.2,26.4Z"/>
<path fill="#ffffff" d="M10.7,26.6c0-.1.2,0,.2-.2a.1.1,0,0,0-.1.1c0-.1-.1-.2,0-.2a.2.2,0,0,0-.1.3Z"/>
<path fill="#ffffff" d="M12.4,24.1h.4c-.2-.1,0-.1.1-.1s-.2,0-.4,0h0c-.1,0-.1-.1-.1,0s0,.1,0,.1Z"/>
<path fill="#ffffff" d="M11.2,24.4a.2.2,0,0,0,.3-.1h-.1c0-.1.1,0,.1-.1s-.1,0-.2,0S11.3,24.4,11.2,24.4Z"/>
<path fill="#ffffff" d="M12.3,23.4c.3.1.2-.4-.1-.3s.2,0,.2.2Z"/>
<path fill="#ffffff" d="M14.3,22.3h.1C14.3,22.6,14.6,22.1,14.3,22.3Z"/>
<path fill="#ffffff" d="M12.9,22.6a.2.2,0,0,1-.2-.2h-.1c0,.1.1,0,.2.1s.1.2.1.3a.1.1,0,0,1,0-.2v.2H13c-.1,0,0-.1-.1-.2Z"/>
<path fill="#ffffff" d="M12.7,22.3h.2c0-.1-.3-.3-.2-.1Z"/>
<path fill="#ffffff" d="M15.1,20.7h.1c0,.1-.1,0-.1.1h.2c0-.2,0-.2-.1-.2h.1a.1.1,0,0,0-.1-.1h0c-.1,0,0-.1-.1-.1s-.1,0-.1.2Z"/>
<path fill="#ffffff" d="M11.9,21.5a.1.1,0,0,1,.1.1h.2s-.2-.1-.3,0Z"/>
<path fill="#ffffff" d="M12,20.9h.2c-.1,0-.1,0-.1.1h.1c.2-.2,0-.4-.2-.2Z"/>
<path fill="#ffffff" d="M12.9,19.7H13c-.1-.2-.2,0-.3-.1s.1.1.1.3,0-.1.1-.2.1.1,0,0Z"/>
<path fill="#ffffff" d="M10.3,34.4H9.9c.1.1.2.1.2.3s.1.3.2.1h0c0-.1.1,0,.2-.1s-.2-.1-.1-.2-.1-.2-.1-.2Z"/>
<path fill="#ffffff" d="M12.2,33.4h.2c0-.1,0-.2.2-.2h-.2c.2,0,.3,0,.3-.2h-.1c.1,0,0-.2,0-.2s0-.2-.2-.1.2.1.1.3h-.1c.1-.1,0-.1,0-.2h-.1a.2.2,0,0,1-.1.4Z"/>
<path fill="#ffffff" d="M11.8,30.6c0,.1-.1.1,0,.1s-.1,0-.1,0,.1.3.2.1S11.8,30.7,11.8,30.6Z"/>
<path fill="#ffffff" d="M10.7,28.9h0c0,.2-.1.3,0,.4h.1c.1,0,.1-.2.1-.2s.1-.5-.2-.2Z"/>
<path fill="#ffffff" d="M12,24.4c.2-.1.2.1.4-.1s-.3.1-.2-.1H12Z"/>
<path fill="#ffffff" d="M10.7,22.4c.1-.1.1.1.2.1a.4.4,0,0,1-.1-.3h-.1Z"/>
<path fill="#ffffff" d="M12.8,21.2c-.2.1-.1.2,0,.3h0v.2h0C13,21.4,12.8,21.4,12.8,21.2Z"/>
<path fill="#ffffff" d="M13.6,20.3c-.1-.1-.2.2-.2.2a.1.1,0,0,1,.1-.1.1.1,0,0,0,.1.1v-.2Z"/>
<path fill="#ffffff" d="M11.7,20.2c-.1.1-.1.2-.2.1Z"/>
<path fill="#ffffff" d="M15.1,23.2H15c.3,0,.2,0,.2-.2Z"/>
<path fill="#ffffff" d="M13.1,19.8h.1C13.4,19.9,13.2,19.7,13.1,19.8Z"/>
<path fill="#ffffff" d="M11.8,20.3c.1-.2.2-.1.3-.1S11.7,20.1,11.8,20.3Z"/>
<path fill="#ffffff" d="M14,21.9v.4A.2.2,0,0,0,14,21.9Z"/>
<path fill="#ffffff" d="M12.3,22.5h0C12.6,22.7,12.4,22.3,12.3,22.5Z"/>
<path fill="#ffffff" d="M11.3,21.9h0Z"/>
<path fill="#ffffff" d="M13,20.7h.2C13.1,20.5,13,20.5,13,20.7Z"/>
<path fill="#ffffff" d="M13.4,20.7v-.2h0Z"/>
<path fill="#ffffff" d="M12.6,20.8h0Z"/>
<path fill="#ffffff" d="M13,20.7Z"/>
<path fill="#ffffff" d="M12.2,32.1s.1-.3-.1-.3Z"/>
<path fill="#ffffff" d="M11.3,21.6h0Z"/>
<path fill="#ffffff" d="M22.9,15.3c.2,0,.2,0,.2-.1h-.2Z"/>
<path fill="#ffffff" d="M15.8,13.3c.1-.1.2-.3.3-.3S15.8,13.1,15.8,13.3Z"/>
<path fill="#ffffff" d="M15.9,13.7h-.2c0,.1.2.2.2,0Z"/>
<path fill="#ffffff" d="M13.8,11.8a.6.6,0,0,1-.1-.4c-.1.1-.1-.1-.1-.1s0,.2,0,.4h.1a.1.1,0,0,0-.1.1c.1-.1.1,0,.2,0Z"/>
<path fill="#ffffff" d="M13.9,13.1a.2.2,0,0,0-.1-.4c0,.1.1.2,0,.2v-.2c-.1.1,0,.2,0,.4Z"/>
<path fill="#ffffff" d="M13.1,11.9c.1-.3-.4-.3-.3,0s0-.2.2-.2S13,11.8,13.1,11.9Z"/>
<path fill="#ffffff" d="M12.1,9.7h.1C12.4,9.7,12,9.3,12.1,9.7Z"/>
<path fill="#ffffff" d="M12.4,11.2c0,.1-.2.2-.2.2h0c.2.1.2-.1.4-.1s-.2,0-.2-.1h0Z"/>
<path fill="#ffffff" d="M12.1,11.3H12a.2.2,0,0,0,.2-.2c-.2,0-.4.3-.1.2Z"/>
<path fill="#ffffff" d="M10.7,8.8c-.1-.2,0-.1,0,0h.1c-.1,0-.2,0-.1.1s-.1-.1-.1-.2h0c0,.1-.1,0-.1.1s0,.1.2,0Z"/>
<path fill="#ffffff" d="M11.3,12.2v-.4c0,.1-.2.3,0,.4Z"/>
<path fill="#ffffff" d="M10.6,12c.1,0,0-.1,0-.1h.3c-.2-.3-.4-.2-.3.1Z"/>
<path fill="#ffffff" d="M9.6,10.9h0c-.1,0,0,.1-.1.2s.1,0,.3-.1H9.6Z"/>
<path fill="#ffffff" d="M23.2,14.9c.1,0,0,.2,0,.3s.1-.2.3-.1.3-.2.1-.2h.1c-.2,0-.1-.1-.2-.1s-.1.1-.2,0-.1,0-.1.2Z"/>
<path fill="#ffffff" d="M22.4,12.7v-.2s-.2,0-.1-.2,0,.2.1.2,0-.3-.1-.4.1.1,0,.1-.2.1-.2-.1-.1.1-.1.2.2-.1.2,0h-.1c0-.1.2,0,.2.2Z"/>
<path fill="#ffffff" d="M19.8,12.9h.1c.1.1,0,.1-.1.2s.3-.2.1-.3Z"/>
<path fill="#ffffff" d="M18,13.9h.1s.2.2.3.1h-.2C18.4,13.6,17.8,13.7,18,13.9Z"/>
<path fill="#ffffff" d="M14,12.2c-.1-.1,0-.3,0-.3s0,.2-.2.2h.1s0,.2.1.1Z"/>
<path fill="#ffffff" d="M12,13.4c-.1-.1.1-.1.1-.1h-.3c0,.1,0,.2.1.2Z"/>
<path fill="#ffffff" d="M11,11.3h.3c0-.1.1,0,.2-.1h-.1C11.2,11,11.2,11.3,11,11.3Z"/>
<path fill="#ffffff" d="M10.2,10.2c-.1.1.1.2.1.2h0a.1.1,0,0,1,.1-.1c-.1.1-.1.1-.2,0Z"/>
<path fill="#ffffff" d="M10,12.3c.1,0,.2.1.1.2Z"/>
<path fill="#ffffff" d="M10.1,12.5h0Z"/>
<path fill="#ffffff" d="M13.1,8.9s0,.2.1,0,0-.2-.2-.2S13,8.9,13.1,8.9Z"/>
<path fill="#ffffff" d="M9.7,10.8h.2C9.9,10.5,9.7,10.6,9.7,10.8Z"/>
<path fill="#ffffff" d="M10.1,12.2c-.1-.1,0-.2,0-.3S9.9,12.2,10.1,12.2Z"/>
<path fill="#ffffff" d="M11.7,9.9h.5C12,9.8,11.8,9.8,11.7,9.9Z"/>
<path fill="#ffffff" d="M12.2,11.8h.2C12.4,11.5,12,11.7,12.2,11.8Z"/>
<path fill="#ffffff" d="M11.5,12.9h0Z"/>
<path fill="#ffffff" d="M10.5,10.9v-.2C10.4,10.8,10.3,10.9,10.5,10.9Z"/>
<path fill="#ffffff" d="M10.5,10.5h-.1v0Z"/>
<path fill="#ffffff" d="M10.6,11.3v0Z"/>
<path fill="#ffffff" d="M10.6,10.9h-.1v.2A.1.1,0,0,1,10.6,10.9Z"/>
<path fill="#ffffff" d="M21.2,12.7c0-.1-.3-.2-.3,0Z"/>
<path fill="#ffffff" d="M11.3,12.8v-.3C11.1,12.7,11.3,12.7,11.3,12.8Z"/>
<path fill="#ffffff" d="M140.3,19.4c2.9-3,2.9-7,2.9-11.7V6.8h-5.4v1c0,3.7,0,6.4-1.4,7.9s-4.2,2.2-8.9,2.5V6.8h-5.4V28.7h-1.9v5.4H122c1.6,0,3.1-.1,4.2-1.2a5.5,5.5,0,0,0,1.3-4.1V23.6a43.5,43.5,0,0,0,5.9-.7l3.2-1-3.2,2.3,7.4,10.4,4.3-3.1-7.2-10.2a8.8,8.8,0,0,0,2.4-1.9Z"/>
<path fill="#ffffff" d="M117.1,34.1V28.6h-.6c-4.7,0-7.9-1-10-3C103,22,103.3,14.8,103.6,12h15.6V6.6H96.5V12h6.7l-4.9,1.6h0c-.1.5-.8,10.5,4.4,15.7,3.1,3.1,7.6,4.7,13.8,4.7Z"/>
<path fill="#ffffff" d="M187.4,34.6V29.1h-.5c-4.8,0-8.1-1-10.2-3.1a10.6,10.6,0,0,1-1.7-2.6h8.6V17.9h-9.9a33.3,33.3,0,0,1,.1-5.7h15.7V6.7h-23v5.5h6.9l-5.1,1.6h0a30.3,30.3,0,0,0,.1,4h-1.9v5.5h2.9a13.8,13.8,0,0,0,3.4,6.5c3.2,3.2,7.8,4.7,14.1,4.7Z"/>
<path fill="#ffffff" d="M165.8,28.6H159V12h5.2V6.5H148.3V12h10.3l-5.1,1.5V28.6h-6.8V34h19.1Z"/>
<path fill="#ffffff" d="M52.5,6.5V12H68.1l-5,1.5h0c-.1,4.3-.6,8.6-3.5,11.5a11.3,11.3,0,0,1-6.2,3V24.6H48v9.3h.5c6.7,0,11.6-1.6,14.9-4.9s5.1-9.9,5.1-17h2.3V6.5Z"/>
<path fill="#ffffff" d="M92.8,20.8a51.7,51.7,0,0,1-2.8-9h4.5V6.5H73.2v5.3h8.9l-5.2,1.5a41.7,41.7,0,0,1-2.5,7.5,103.5,103.5,0,0,1-5.2,10.7l5,2.1s1.1-2,2.5-4.9,2-4.3,2-4.3h9.8s.8,1.9,2,4.3S93,33.6,93,33.6l5-2.1a103.5,103.5,0,0,1-5.2-10.7Zm-9.1-1.6H80.5s.7-2.4,1-3.2,1.1-4.2,1.1-4.2h2s.8,3.2,1.1,4.2,1,3.2,1,3.2Z"/>
</svg>