<svg width="189" height="40" viewBox="0 0 189 40" fill="none" xmlns="http://www.w3.org/2000/svg">
<path d="M22.3641 11.3855H20.14V15.3817H22.3641V11.3855Z" fill="#E00F1C"/>
<path d="M20.0742 20.3105H22.3641V16.58H20.0742V20.3105Z" fill="#E00F1C"/>
<path d="M14.8856 20.3105H17.7816V16.58H15.2888C15.1544 17.8461 15.02 19.0444 14.8856 20.3105Z" fill="#E00F1C"/>
<path d="M24.6539 26.9013C25.4629 26.9691 26.2719 27.1019 27.0782 27.167C27.3469 27.167 27.6157 27.0992 27.8872 27.0341C28.3589 26.8335 28.4247 26.3672 28.4933 25.9009C28.6276 24.6348 28.6962 23.4365 28.8306 22.1704C28.8306 21.9047 28.8991 21.704 28.8991 21.4384H24.6567V26.8986L24.6539 26.9013Z" fill="#E00F1C"/>
<path d="M27.2126 11.3855H24.6539V15.3139H27.2126V11.3855Z" fill="#E00F1C"/>
<path d="M33.479 29.6341C33.479 29.3006 33.479 28.6364 33.4105 28.3029C33.4105 27.8366 33.3419 27.4381 33.3419 26.9718C33.3419 26.7061 33.2734 26.3048 33.2734 25.6406C33.2734 25.1743 33.2048 24.8408 33.2048 24.3094C33.1362 23.8431 33.1362 23.3117 33.0704 22.9783C33.0019 22.6448 33.0019 22.0456 32.936 21.6471C32.936 21.1808 32.8675 20.8473 32.8675 20.3159C32.8675 19.649 32.7989 19.4511 32.7989 19.1176C32.7989 18.6513 32.7989 18.2528 32.7304 17.9193V16.6532C32.8647 16.2547 32.9333 15.7883 32.9333 15.322C32.8647 15.6555 32.6645 15.989 32.393 16.1218C32.4616 15.7883 32.4616 15.4549 32.4616 15.1241C32.596 14.7906 32.6645 14.4572 32.6645 14.0586C32.7331 14.1915 32.8675 14.3243 32.8675 14.4572C32.7989 14.2566 32.7331 13.9909 32.6645 13.7902V13.1911C32.6645 13.0582 32.596 12.5241 32.596 11.9928C32.596 11.7921 32.5274 11.193 32.5274 10.7944C32.5274 10.461 32.4589 10.0624 32.4589 9.52834C32.4589 9.19487 32.3903 8.72855 32.3903 8.26224C32.3903 7.8637 32.3217 7.53023 32.3217 7.26454C32.3903 7.06392 31.9844 6.79822 31.9844 6.5976C31.9844 6.33191 31.4442 6.06351 31.4442 5.79782C31.4442 5.3315 31.8473 4.86519 31.8473 4.53172C31.8473 4.0654 32.0503 3.73193 32.1161 3.3334C31.2412 3.26562 30.4981 3.20055 29.6232 3.13277C29.1516 3.13277 28.8142 3.13277 28.3426 3.06499C27.8709 3.13277 27.4677 2.99722 27.0619 3.06499C26.5902 3.06499 26.187 3.13277 25.7812 3.06499C25.3095 3.26562 24.9063 2.99722 24.4347 3.06499C23.963 2.99722 23.5598 3.13277 23.0882 3.06499C22.6165 3.19784 22.2133 3.13277 21.7416 3.06499C21.27 3.06499 20.8668 2.93215 20.3951 3.06499C19.9234 2.99722 19.5203 2.99722 19.0486 3.06499C18.5769 2.99722 18.1738 3.19784 17.7679 3.06499C17.3648 2.93215 17.0275 3.06499 16.6216 3.06499C16.2185 2.86437 15.8126 2.73152 15.4095 2.59868C14.669 2.33299 13.9286 2.59868 13.3225 2.99722C12.9852 3.06499 12.6479 2.99722 12.3133 2.92944C11.8416 2.92944 11.4385 2.72881 10.9668 2.92944C10.4951 3.32797 10.092 3.19513 9.62032 2.92944C9.14863 2.86166 8.7455 2.92944 8.27381 2.92944C7.80212 2.79659 7.39899 3.26291 6.9273 2.99722C6.45561 3.13006 6.05248 3.26291 5.58079 3.06499C5.1091 3.26562 4.70597 3.26562 4.23428 3.19784C3.76259 3.19784 3.35946 3.26562 2.88777 3.39846C2.95633 3.73193 3.09071 3.99762 3.15653 4.46394C3.22509 4.86248 3.2909 5.32879 3.2909 5.52941C3.35946 5.86288 3.35946 6.26142 3.35946 6.59489V8.99153C3.35946 9.39007 3.35946 9.72354 3.2909 10.057C3.2909 10.1899 3.22234 10.2576 3.22234 10.3905C3.08797 11.3231 3.08797 12.2557 3.15378 13.1884V14.9208C2.95085 15.4549 2.95085 16.054 3.15378 16.6532C3.15378 16.9867 2.81647 17.3852 2.81647 17.6509C2.81647 18.185 2.47916 18.5157 2.47916 18.917V23.8458C2.47916 26.4431 2.74791 28.9726 2.4106 31.5699C2.4106 31.8355 2.47916 32.169 2.4106 32.5676C2.34204 32.9661 2.4106 33.3673 2.4106 33.7659C2.4106 34.0316 2.54497 34.6985 2.74791 34.6985C2.95085 34.8991 3.28816 35.032 3.69129 35.1648C4.0286 35.2326 4.43173 35.1648 4.70049 35.2977C5.10362 35.2299 5.50949 35.2299 5.8468 35.2977C6.24993 35.3654 6.6558 35.1648 6.99312 35.2299C7.39625 35.2299 7.80212 35.097 8.13943 35.1621C8.54256 35.1621 8.94843 35.0943 9.28575 35.0943C9.68888 35.0266 10.0947 34.9615 10.4321 35.0943C10.8352 35.0943 11.3069 35.0266 11.7128 35.0943C12.1159 35.0943 12.5876 35.1621 12.9934 35.0943C13.3966 35.0266 13.8683 35.0943 14.2741 35.1621C14.6773 35.1621 15.149 35.2299 15.5548 35.2299C15.9607 35.2299 16.4296 35.2977 16.8355 35.2977C17.2387 35.3654 17.7103 35.3654 18.1162 35.3654C18.5221 35.3654 18.991 35.2326 19.3969 35.4332C19.8 35.5661 20.2059 35.501 20.609 35.501H21.8212C22.2243 35.4332 22.6302 35.501 23.0333 35.501H24.2454C24.6486 35.6338 25.0544 35.501 25.4576 35.5688C25.8607 35.6366 26.2666 35.7694 26.6697 35.6366C27.0728 35.6366 27.4787 35.6366 27.8818 35.7043C28.2191 35.7721 28.6223 35.7721 28.9596 35.7721C29.2969 35.8399 29.7 35.905 30.0373 35.8399C30.3747 35.707 30.7778 35.7721 31.1151 35.8399C31.2495 35.9727 31.3839 36.0405 31.5182 35.8399C31.6526 35.9077 31.8555 36.0405 31.9899 35.7721C31.9899 35.9727 32.0585 35.8399 32.0585 35.6393C32.1929 35.5064 32.2614 35.4386 32.3958 35.3058C32.4643 35.4386 32.5987 35.1052 32.5987 35.0401C32.5987 34.9073 32.7331 34.3081 32.8017 34.3732C32.8702 34.0397 32.8702 34.2403 32.8702 33.9069C32.8702 33.3728 32.9388 33.5083 32.9388 33.4405C32.9388 33.5083 33.0073 32.8414 33.0073 32.6408C33.0073 32.3751 33.0073 32.3073 33.0759 31.841C33.0759 31.7732 33.0759 30.9761 33.0759 31.0412C33.479 30.5098 33.479 30.0435 33.479 29.6422V29.6341ZM10.3059 15.5145V28.5009C10.3059 29.6992 10.3745 30.8975 10.4403 32.0958C10.4403 32.3615 10.3717 32.5621 10.103 32.6299C9.69985 32.8305 9.29397 33.0962 8.82228 33.2968C8.61935 33.4297 8.28478 33.3646 7.94746 33.4297C7.94746 32.8956 8.01602 32.4971 8.01602 32.0985V15.3166C7.67871 15.8507 7.3414 16.3821 6.93827 16.9812C6.19783 18.0467 5.45738 19.1122 4.64838 20.1099C4.514 20.2427 4.11087 20.2427 3.83938 20.1777C3.50207 20.0448 3.36769 19.5785 3.57063 19.245C3.90794 18.5781 4.31107 17.9789 4.64838 17.3147C5.38882 15.9835 6.12927 14.5846 6.73533 13.2534C7.3414 11.9873 7.81309 10.7239 8.28478 9.45785C8.82228 7.99383 9.22816 6.52711 9.69985 5.0631C9.83422 4.66456 10.2374 4.46394 10.6432 4.66456C11.3837 5.13088 12.1241 5.59719 12.8673 6.06351C13.136 6.19635 13.136 6.73045 12.8673 6.86329C12.2612 7.12898 11.9239 7.5953 11.6552 8.19446C10.9805 9.65847 10.2401 11.0574 9.49965 12.5241C9.90278 12.7248 10.2401 12.9227 10.646 13.1233C11.0491 13.3239 11.1177 13.9231 10.7803 14.121C10.3087 14.4545 10.3087 14.9208 10.3087 15.5199L10.3059 15.5145ZM31.6608 21.6417C31.1891 21.9074 31.1233 22.1758 31.0548 22.6394C30.9204 24.304 30.786 25.9687 30.5173 27.6333C30.3143 28.9645 29.3709 29.6965 28.2274 30.2306C27.7557 30.4312 27.3526 30.2983 27.2182 29.832C26.8809 29.0322 26.209 28.6337 25.4 28.3002C25.197 28.2325 24.9283 28.1674 24.6595 28.0345C24.7281 28.8343 24.7281 29.6314 24.7939 30.3661V31.1659C24.7939 31.9648 24.4118 32.498 23.6476 32.7655C23.2445 32.8983 22.8386 33.2318 22.3669 33.0312C22.4355 29.1678 22.4355 25.3071 22.5013 21.4438H19.9426C19.8083 22.1758 19.7397 22.9078 19.6053 23.6425C19.268 25.2421 18.7305 26.7061 17.8529 28.0372C16.6408 29.9676 14.957 31.4343 12.9359 32.5648C12.3983 32.8305 11.9925 33.2318 11.3206 33.164C11.0518 33.164 10.9833 33.0312 10.9175 32.7655C10.8489 32.2992 11.1204 32.0335 11.455 31.8328C13.2074 30.5017 14.7568 28.9699 15.9004 27.0368C16.7094 25.7057 17.2469 24.2389 17.4498 22.6421C17.5184 22.2436 17.5842 21.8423 17.6528 21.376C16.7094 21.376 15.9004 21.3082 15.0255 21.376C14.8226 21.376 14.6224 21.7095 14.4195 21.9752C14.2851 22.108 14.1507 22.3086 14.0164 22.5092C13.882 22.7099 13.3417 22.7099 13.1415 22.577C12.7384 22.1785 12.3325 21.845 11.9294 21.4438C11.5921 21.1103 11.5921 20.7118 11.998 20.4461C12.7384 20.0475 12.7384 19.3128 12.807 18.6486C12.9413 17.5831 13.0099 16.5176 13.1443 15.4522V14.2538C13.616 14.121 13.9533 14.2538 14.2906 14.5195C15.0996 15.1865 15.9744 15.4522 16.9864 15.3193C17.2551 15.2515 17.5924 15.3193 17.8612 15.3193V11.3231H17.0522C15.9744 11.3909 14.8967 11.1903 13.8189 11.5888C13.4816 11.7216 13.0785 11.6566 12.8097 11.3231C12.541 10.9896 12.0693 10.7239 12.2722 10.1248H17.8639V4.39887C18.1327 4.46665 18.47 4.46665 18.7387 4.53172C19.4792 4.86519 20.1538 5.19866 20.8942 5.59719C21.163 5.73004 21.2316 6.06351 21.0972 6.3292C21.0972 6.39698 21.0286 6.39698 20.9628 6.46204C20.2224 6.92836 20.088 7.66037 20.1538 8.46015C20.2224 8.99424 20.1538 9.52563 20.1538 10.1248H22.5122C22.4437 8.25953 22.3779 6.46204 22.3093 4.53172C22.6466 4.5995 22.9154 4.59949 23.1841 4.73234C23.8588 4.99803 24.5306 5.3315 25.2053 5.66497C25.5426 5.79782 25.677 6.33191 25.4082 6.52982C24.7336 6.99614 24.6678 7.66308 24.7336 8.39508V10.1926H27.1578C27.2264 10.1926 27.3608 10.1248 27.4266 10.0597C27.6295 9.8591 27.8983 9.5934 28.1012 9.39278C28.5044 8.99424 28.9102 8.99424 29.3134 9.39278L30.3225 10.3905C30.7257 10.789 30.6599 11.1903 30.254 11.5237C30.1854 11.5915 30.1196 11.5915 30.0511 11.5915C29.6479 11.7921 29.5135 12.1256 29.5794 12.5241C29.6479 13.7225 29.5108 14.9886 29.7137 16.1869C29.8481 17.1195 29.445 17.3852 28.7704 17.7187C28.2767 17.941 27.805 18.0521 27.3553 18.0521V16.5881H24.7281V20.3186H28.5016C28.7045 20.3186 28.9047 20.1858 29.0391 20.118C29.2421 19.9174 29.4422 19.7195 29.6452 19.5189C30.0483 19.1203 30.4542 19.1203 30.7915 19.5189C31.1288 19.8523 31.4661 20.1858 31.8007 20.5166C32.2038 20.9151 32.2038 21.3163 31.6663 21.6498L31.6608 21.6417Z" fill="#E00F1C"/>
<path d="M20.4774 14.5819C20.2744 14.3813 20.0057 14.3813 19.8027 14.6497C20.0057 14.6497 20.2744 14.5819 20.4774 14.5819Z" fill="#E00F1C"/>
<path d="M13.945 15.5823C13.6763 15.5145 13.4733 15.5823 13.2046 15.7151C13.4075 15.6474 13.6763 15.6474 13.945 15.5823Z" fill="#E00F1C"/>
<path d="M18.5906 18.3124C18.5906 17.9139 18.5906 17.5126 18.6591 17.1141H18.8621C18.9964 17.1141 19.1308 17.1819 19.2652 17.1819C18.9279 17.5804 18.7277 17.9139 18.5906 18.3151V18.3124Z" fill="#E00F1C"/>
<path d="M29.0995 15.1811H28.5592H28.7621C28.8965 15.1811 29.0309 15.2488 29.1653 15.2488L29.0967 15.1811H29.0995Z" fill="#E00F1C"/>
<path d="M13.0675 17.5126C13.0675 17.5804 12.9989 17.7133 12.9989 17.7783C13.1333 17.9112 13.2677 18.1118 13.402 18.2446C13.2677 18.044 13.1333 17.7783 13.0647 17.5126H13.0675Z" fill="#E00F1C"/>
<path d="M22.4985 20.4434C22.3641 20.3756 22.2297 20.4434 22.0953 20.5111C22.2297 20.5111 22.3641 20.4434 22.4985 20.4434Z" fill="#E00F1C"/>
<path d="M25.1943 15.1811C25.5975 15.7802 26.0692 16.1137 26.3407 15.1133C26.2063 15.3139 25.869 15.3139 25.1943 15.1811Z" fill="#E00F1C"/>
<path d="M17.1783 26.9013C17.1097 27.0341 17.0439 27.1019 16.9095 27.2348C16.9095 27.3025 16.9781 27.4354 16.9781 27.5005C17.4498 27.167 17.6527 26.7685 17.4498 26.435C17.3154 26.6356 17.2469 26.7685 17.181 26.9013H17.1783Z" fill="#E00F1C"/>
<path d="M18.7935 5.26101C18.9965 5.32879 19.2652 5.46163 19.4681 5.5267C19.065 5.12816 18.5248 4.79469 17.9187 4.59407C18.256 4.72692 18.5248 4.99261 18.7935 5.26101Z" fill="#E00F1C"/>
<path d="M32.8729 0.199268C32.8729 0.332114 32.8044 0.665583 32.7385 0.199268C32.6042 0.532738 32.4698 0.332114 32.2669 0.199268C32.0639 0.267047 31.8637 0.733362 31.5264 0.199268C31.2577 0.332114 30.9203 0.0664228 30.583 0.199268C30.2457 0.13149 29.8426 0.332114 29.4367 0.199268C29.0336 0.267047 28.5619 0.199268 28.0902 0.199268C27.6185 -0.00135557 27.081 0.0664228 26.6093 0.199268C26.0718 0.399892 25.5316 0.199268 24.9941 0.199268C24.4566 0.13149 23.8477 0.199268 23.2417 0.199268C22.6356 0.332114 22.0295 0.267047 21.4235 0.199268C20.8174 0.332114 20.1428 0.267047 19.5367 0.199268C18.9307 -0.134201 18.256 0.13149 17.65 0.199268C17.0439 0.199268 16.3693 -0.134201 15.7632 0.199268C15.1571 0.13149 14.4825 -0.0664228 13.8764 0.199268C13.2704 0.0664228 12.6643 0.464959 12.0583 0.199268C11.4522 0.267047 10.8461 0.199268 10.3059 0.199268C9.76562 0.199268 9.15955 0.332114 8.68786 0.199268C8.15036 -0.0664228 7.67867 -0.0664228 7.20698 0.199268C6.73529 0.332114 6.2636 -0.00135557 5.86047 0.199268C5.45734 0.199268 5.05147 0.399892 4.71415 0.199268C4.37684 -0.0664228 4.03953 0.332114 3.77077 0.199268C3.50202 0.267047 3.23327 0.464959 3.03033 0.199268C2.83014 0.0664228 2.69576 -0.00135557 2.55864 0.199268C2.42426 0.798429 2.42426 -0.0664228 2.42426 0.199268C2.08695 0.199268 1.74964 -0.199268 1.48089 0.399892C1.21213 -0.134201 0.940637 0.600516 0.740443 0.933986C0.537507 1.13461 0.337313 1.66599 0.202936 1.73377C0.0685595 1.93439 0 2.20009 0 2.73147C0 2.398 0 2.66369 0 2.86431V3.33063C0 3.59632 0 4.19548 0 4.06263V35.162C0 35.4277 0 35.2949 0 35.2949C0 35.6284 0.0685595 36.2275 0.202936 36.2926C0.337313 36.5583 0.47169 37.2252 0.740443 37.0924C0.943379 37.1602 1.21213 37.4258 1.48089 37.6265C1.74964 37.7593 2.08695 37.6265 2.42426 37.8271C2.42426 37.6942 2.49282 37.5614 2.55864 37.8271C2.69302 38.0928 2.82739 37.7593 3.03033 37.8271C3.23327 37.6265 3.43346 37.9599 3.77077 37.8271C4.03953 37.6942 4.37684 37.8949 4.71415 37.8271C5.05147 37.9599 5.4546 37.7593 5.86047 37.8271C6.2636 37.8271 6.73529 37.9599 7.20698 37.8271C7.67867 37.8949 8.21617 37.6942 8.68786 37.8271H10.3059C10.8461 37.7593 11.4522 37.8949 12.0583 37.8271C12.6643 37.9599 13.2704 37.9599 13.8764 37.8271C14.4825 37.9599 15.1571 37.6942 15.7632 37.8271C16.3693 37.7593 17.0439 37.6942 17.65 37.8271H19.5367C20.1428 37.6942 20.8174 37.4936 21.4235 37.8271C22.0295 37.8949 22.6356 37.6942 23.2417 37.8271C23.8477 38.0277 24.4538 37.8271 24.9941 37.8271C25.5316 37.8949 26.1404 37.6265 26.6093 37.8271C27.1468 38.0277 27.6185 37.7593 28.0902 37.8271C28.5619 37.7593 29.0336 37.8949 29.4367 37.8271H30.583C30.9203 37.7593 31.2577 37.8271 31.5264 37.8271C31.7952 37.8949 32.0667 37.7593 32.2669 37.8271C32.4698 37.7593 32.6042 37.8949 32.7385 37.8271C32.8281 37.7819 32.8729 37.7819 32.8729 37.8271C33.2102 37.6265 33.5475 37.6265 33.8163 37.6265C34.0851 37.3608 34.3566 37.4936 34.6253 37.0273C34.8282 36.8945 35.0284 36.561 35.1656 36.1625V1.99675C35.1656 1.46266 35.1656 1.8639 35.1656 1.8639C35.0312 1.46537 34.8968 1.06412 34.6253 0.999053C34.4224 0.399892 34.1536 0.0664228 33.8163 0.399892C33.5475 0.467671 33.2102 0.0664228 32.8729 0.199268ZM34.4882 8.85592C34.4882 9.32223 34.4196 9.25446 34.4196 10.0542C34.4196 10.5206 34.3511 10.9869 34.2852 11.2526C34.2167 11.5183 34.2167 11.9195 34.1509 12.4509C34.0823 13.05 34.0823 13.5841 34.0165 13.6492C33.9479 14.1155 33.9479 14.3161 33.9479 14.8475C33.9479 15.2461 33.8794 15.8452 33.8794 16.0458V17.2442C33.8794 17.6427 33.8794 18.109 33.9479 18.4425C33.9479 18.7082 33.8794 18.9088 33.8136 19.1094C33.8136 19.4429 33.8136 19.8414 33.8821 20.3078C33.8821 20.7063 33.9507 21.1075 33.9507 21.5061C33.9507 21.9046 34.0192 22.3709 34.0851 22.7044C34.1536 23.2385 34.1536 23.5042 34.2194 23.9027C34.288 24.2362 34.288 24.7025 34.288 25.101C34.288 25.0333 34.3565 25.9659 34.3565 26.1665C34.3565 26.7006 34.4251 27.0991 34.4251 27.232C34.4251 27.6305 34.4937 27.964 34.4937 28.2975V31.4261C34.4937 31.8246 34.4937 32.291 34.4251 32.4916C34.4251 32.9579 34.3566 33.5571 34.2907 33.5571C34.2222 33.8228 34.1564 34.224 34.022 34.5548C34.1564 34.8882 34.2249 35.0211 34.2249 35.2868C34.2249 35.7531 34.0905 35.6202 33.8218 36.0188C33.553 36.2194 33.2157 36.5529 32.8126 36.6179C32.4753 36.8836 32.0721 36.8186 31.7348 36.9514C31.3317 37.0192 30.9258 37.0192 30.5227 37.0842C30.1196 37.2171 29.7137 37.0165 29.3106 37.0842C28.9074 37.0165 28.5016 37.0842 28.0984 37.0165C27.6953 36.9487 27.358 36.9487 26.9521 36.8836C26.549 36.7508 26.2117 36.8836 25.8058 36.8158C25.4027 36.6152 25.0654 36.6152 24.6595 36.7481C24.2564 36.7481 23.919 36.8158 23.5132 36.6803C23.11 36.7481 22.7727 36.8131 22.3669 36.6803C21.9637 36.5474 21.6264 36.7481 21.2205 36.6803C20.8174 36.6125 20.4801 36.8131 20.0742 36.6125C19.6711 36.4119 19.3338 36.6125 18.9279 36.5447C18.5248 36.4119 18.1875 36.4119 17.7816 36.477C17.3785 36.3441 17.0412 36.2113 16.6353 36.4092C16.2322 36.477 15.8948 36.3414 15.489 36.3414C15.0831 36.3414 14.7485 36.542 14.3427 36.2736C13.9395 36.2736 13.6022 36.2058 13.1963 36.2058C12.7932 36.073 12.4559 36.2058 12.05 36.2058C11.6469 36.2736 11.3096 36.3387 10.9037 36.2058C10.5006 36.3387 10.0947 36.4065 9.69158 36.2058C9.28844 36.2736 8.88257 36.2736 8.47944 36.2736C8.07631 36.3414 7.67044 36.2736 7.26731 36.3414C6.86418 36.2085 6.45831 36.2736 6.05518 36.4092C5.65205 36.477 5.24617 36.4092 4.84304 36.4092C4.50573 36.2763 4.23698 36.4092 3.83385 36.2763C3.49654 36.1435 3.15922 36.0757 2.82465 36.0106C2.48734 36.0106 2.15003 35.7449 1.88127 35.5443C1.61252 35.2108 1.34377 35.4115 1.14083 34.8774C0.937894 34.7445 0.803518 34.0776 0.737701 33.8797C0.669141 33.4134 0.603324 33.0148 0.603324 32.6814V31.483C0.671883 30.2847 0.872077 29.0864 0.940637 27.8881C1.0092 24.9573 1.07501 21.9615 1.07501 19.0308C1.07501 17.8325 1.07501 16.5664 1.14357 15.3681V14.1697C1.14357 13.7712 1.14357 13.3049 1.21213 12.9714C1.21213 12.6379 1.21213 12.2394 1.28069 11.7731C1.28069 11.4396 1.34925 10.9733 1.34925 10.5748C1.34925 10.3091 1.41781 9.84277 1.41781 9.37646C1.41781 9.04299 1.48637 8.51161 1.48637 8.11036V6.84426C1.48637 6.2451 1.48637 5.91163 1.41781 5.57816C1.34925 4.979 1.28343 4.58046 1.21487 4.37984C1.14632 4.24699 1.01194 3.84574 0.811745 3.24658C0.743185 2.84805 0.677368 2.91311 0.677368 2.78027C0.677368 2.24617 0.677368 2.57964 0.745928 2.38173C0.814487 2.31395 0.880304 1.64973 1.01468 1.84764C1.14906 1.84764 1.35199 1.77986 1.62075 1.51417C2.02388 1.1807 2.42975 1.38132 2.90144 1.24848C3.30457 1.4491 3.77626 0.982786 4.18213 1.04785C4.58526 0.714384 5.05695 0.980075 5.46282 0.915008C5.86595 0.714384 6.33764 1.11563 6.74352 0.847229C7.14665 1.04785 7.61833 0.847229 8.02421 0.779451C8.42734 0.847229 8.89903 0.779451 9.3049 0.779451C9.70803 0.51376 10.1797 0.847229 10.5856 0.779451C10.9887 0.912297 11.4604 0.578827 11.8663 0.779451C12.2694 0.646605 12.7411 0.51376 13.147 0.779451C13.5501 0.578827 14.0218 0.847229 14.4277 0.779451C14.8308 1.31354 15.3025 0.779451 15.7084 0.779451C16.1115 0.51376 16.5832 0.847229 16.9891 0.779451C17.3922 0.711673 17.7981 0.779451 18.2012 0.779451C18.6043 0.779451 19.0102 0.578827 19.4133 0.779451C19.8164 0.847229 20.2223 0.847229 20.6254 0.779451C21.0286 0.779451 21.4345 0.711673 21.8376 0.779451C22.2407 0.912297 22.6466 0.711673 23.0497 0.779451C23.4528 0.779451 23.8587 0.445982 24.2618 0.779451C24.665 1.04514 25.0708 0.711673 25.474 0.779451C25.8771 0.578827 26.283 0.847229 26.6861 0.779451C27.0892 0.847229 27.4951 0.779451 27.8982 0.779451C28.7072 0.779451 29.5162 0.847229 30.3911 0.912297C30.7942 0.980075 31.2001 0.711673 31.6032 1.04514C32.0063 1.04514 32.4122 1.04514 32.8153 1.17799C33.2185 1.37861 33.4214 1.6443 33.5558 1.77715C33.6902 2.24346 33.6243 2.31124 33.4872 2.70978C33.5558 2.97547 33.6216 3.04325 33.6902 3.24387C33.7587 3.50956 33.7587 3.57734 33.8245 3.77797C33.8931 4.31206 33.9589 4.11143 34.0275 4.91122C34.096 5.24469 34.096 5.711 34.096 6.10954V7.30786C34.5677 8.17271 34.4992 8.63903 34.4992 8.83965L34.4882 8.85592Z" fill="#E00F1C"/>
<path fill-rule="evenodd" clip-rule="evenodd" d="M15.9634 17.5126C15.9634 17.1792 15.9634 17.5126 15.8949 17.1141C15.8949 17.0463 15.8263 17.0463 15.8263 17.1141C15.8949 17.2469 15.8263 17.1819 15.8263 17.4476C15.8949 17.3147 15.8263 17.3798 15.9607 17.3798C15.8921 17.5126 15.8263 17.5126 15.9607 17.5126H15.9634Z" fill="#D58245"/>
<path fill-rule="evenodd" clip-rule="evenodd" d="M26.2035 20.644C26.0691 20.7118 26.0691 20.5762 26.1349 20.4434C25.8661 20.4434 26.1349 20.644 25.932 20.709C25.8634 20.6413 26.0005 20.5762 25.932 20.5762C25.8634 20.709 25.8634 20.644 25.8634 20.5762C25.932 20.709 25.932 20.9747 26.0663 20.9097C25.8634 20.644 26.2007 20.8419 26.2007 20.644H26.2035Z" fill="#D58245"/>
<path fill-rule="evenodd" clip-rule="evenodd" d="M10.5088 20.9748C10.5773 21.1754 10.5088 21.0425 10.5773 21.3082C10.6459 21.2405 10.7117 20.9748 10.7803 21.2405C10.7117 20.9748 10.6459 20.907 10.5773 21.1076C10.5773 20.9748 10.5773 20.907 10.5088 20.9748Z" fill="#D58245"/>
<path fill-rule="evenodd" clip-rule="evenodd" d="M26.0004 21.1754C25.9319 21.2431 25.9319 21.1754 25.9319 21.1754C26.0004 21.5088 25.9319 21.7745 26.0663 21.7745C26.0663 21.6417 26.0663 21.5739 26.0663 21.6417C25.9977 21.6417 25.9977 21.5739 25.9319 21.5739C26.0004 21.5061 26.0663 21.3733 26.0004 21.1754Z" fill="#D58245"/>
<path fill-rule="evenodd" clip-rule="evenodd" d="M25.9347 21.4411C25.9347 21.3082 25.8003 21.3733 25.7317 21.4411C25.7317 21.4411 25.8003 21.4411 25.7317 21.5739C25.7317 21.5061 25.6632 21.7068 25.5974 21.7068C25.5288 21.7745 25.7317 21.8396 25.6659 21.9074C25.8003 21.8396 25.8003 21.7745 25.8689 21.7745C25.8689 21.6417 25.7345 21.7068 25.7345 21.7745C25.7345 21.5739 25.8689 21.7745 25.803 21.6417C25.803 21.4411 25.7345 21.7095 25.7345 21.5088C25.8689 21.376 25.8689 21.5088 25.9374 21.4411H25.9347Z" fill="#D58245"/>
<path fill-rule="evenodd" clip-rule="evenodd" d="M26.8781 24.3718C26.8781 24.304 26.7437 24.1061 26.6752 24.0383C26.6066 24.304 26.8781 24.5046 26.8781 24.3718Z" fill="#D58245"/>
<path fill-rule="evenodd" clip-rule="evenodd" d="M25.8004 25.3722C25.8004 25.3722 25.7318 25.44 25.7318 25.3722C25.7318 25.3722 25.7318 25.1716 25.6633 25.1065C25.7318 25.1065 25.7318 25.0387 25.7318 25.1065C25.3287 24.773 25.8004 25.8385 25.8004 25.3722Z" fill="#D58245"/>
<path fill-rule="evenodd" clip-rule="evenodd" d="M11.8552 26.9691C11.7867 26.6356 11.6523 26.7684 11.6523 26.5027C11.4494 26.5027 11.6523 26.9691 11.8552 26.9691Z" fill="#D58245"/>
<path fill-rule="evenodd" clip-rule="evenodd" d="M12.3956 26.9013C12.3956 27.0341 12.2612 26.8335 12.1926 27.1019C12.2612 27.1697 12.2612 27.0341 12.2612 27.1019V27.3676C12.3956 27.5682 12.5299 27.1019 12.3956 26.9013Z" fill="#D58245"/>
<path fill-rule="evenodd" clip-rule="evenodd" d="M16.435 27.5682C16.3664 27.5005 16.3664 27.3025 16.2321 27.1697C16.2321 27.3703 16.3006 27.5682 16.435 27.5682Z" fill="#D58245"/>
<path fill-rule="evenodd" clip-rule="evenodd" d="M19.7369 28.7015C19.8055 28.5686 19.8055 28.3029 19.6684 28.368C19.534 28.5686 19.5998 28.6337 19.7369 28.7015Z" fill="#D58245"/>
<path fill-rule="evenodd" clip-rule="evenodd" d="M19.9398 28.368C19.9398 28.6337 19.8713 28.6337 19.8713 28.7665V28.8343C19.8713 28.9021 19.8713 28.7665 19.8713 28.7665C19.8713 28.6988 19.7369 28.8343 19.8027 28.8343C19.9371 28.7015 19.9371 28.9021 20.0056 28.9672C20.0056 28.7665 20.0742 28.7015 20.0742 28.4358C19.9398 28.4358 19.9398 28.368 19.9398 28.368Z" fill="#D58245"/>
<path fill-rule="evenodd" clip-rule="evenodd" d="M31.3894 29.3006C31.5923 29.3006 31.3894 29.1678 31.5238 28.9672C31.3894 28.8994 31.3208 29.3657 31.3894 29.3006Z" fill="#D58245"/>
<path fill-rule="evenodd" clip-rule="evenodd" d="M20.0743 29.5663C19.9399 29.6341 19.8055 29.4986 19.6711 29.767C19.8055 29.6341 19.9399 29.8347 19.9399 29.767H19.8713C20.0057 29.6992 20.0743 29.6992 20.0743 29.5663Z" fill="#D58245"/>
<path fill-rule="evenodd" clip-rule="evenodd" d="M7.20699 31.0304C7.13843 31.0304 7.20699 30.8297 7.20699 30.8297C7.27555 30.564 6.80386 31.0304 7.20699 31.0304Z" fill="#D58245"/>
<path fill-rule="evenodd" clip-rule="evenodd" d="M8.82495 31.1659C8.82495 31.2337 8.89351 30.9653 8.82495 31.1659C8.89351 31.1659 8.95933 31.3665 8.95933 31.4994C8.95933 31.2988 9.02789 31.6322 9.0937 31.4994C9.16226 31.2988 9.02514 31.4994 8.95933 31.3665C9.0937 31.2337 8.89077 30.968 8.95933 30.9002C8.89077 30.8324 8.95933 30.968 8.82495 31.1659C8.82495 30.9653 8.89351 31.2988 8.89351 30.9002C8.89351 30.968 8.82495 30.968 8.82495 30.9002C8.89351 30.9002 8.82495 31.1659 8.82495 31.1659Z" fill="#D58245"/>
<path fill-rule="evenodd" clip-rule="evenodd" d="M9.09375 31.4967C9.09375 31.4289 9.09375 31.6295 9.09375 31.4967C9.16231 31.4967 9.16231 31.6295 9.09375 31.4967Z" fill="#D58245"/>
<path fill-rule="evenodd" clip-rule="evenodd" d="M8.89077 31.6295C8.82221 31.4967 8.82221 31.6295 8.82221 31.6973C8.89077 31.4967 8.89077 31.4316 8.75365 31.4316C8.68509 31.6322 8.88802 32.2314 8.88802 31.6322L8.89077 31.6295Z" fill="#D58245"/>
<path fill-rule="evenodd" clip-rule="evenodd" d="M5.92901 32.695C5.72607 32.8278 5.86045 32.695 5.92901 32.695C5.92901 32.6272 5.79463 32.6272 5.86045 32.5621C5.86045 32.4944 5.92901 32.6299 5.92901 32.5621C5.92901 32.4944 5.86045 32.4944 5.86045 32.4293C5.79189 32.5621 5.79189 32.695 5.86045 32.6299C5.79189 32.6977 5.79189 32.7628 5.72607 32.6977V32.8305C5.79463 32.8305 5.79463 32.7628 5.79463 32.8305C5.86319 32.8983 5.72607 33.0312 5.86319 33.0312C5.79463 32.7655 5.93175 32.9634 5.93175 32.6977L5.92901 32.695Z" fill="#D58245"/>
<path fill-rule="evenodd" clip-rule="evenodd" d="M12.4614 32.695C12.5958 32.7628 12.4614 32.8278 12.53 33.0284C12.53 32.8278 12.6644 32.695 12.4614 32.695Z" fill="#D58245"/>
<path fill-rule="evenodd" clip-rule="evenodd" d="M9.56548 33.0962C9.49692 33.0962 9.49692 32.8305 9.43111 32.8956C9.43111 32.8956 9.22817 33.0285 9.16235 32.9634C9.29673 33.0312 9.43111 33.2291 9.56548 33.0962Z" fill="#D58245"/>
<path fill-rule="evenodd" clip-rule="evenodd" d="M4.24243 33.2968C4.24243 33.2968 4.24243 32.8983 4.17387 33.0312C4.17387 33.0989 4.0395 33.3646 4.24243 33.2968Z" fill="#D58245"/>
<path fill-rule="evenodd" clip-rule="evenodd" d="M13.0016 33.4948C12.8673 33.4948 13.0016 33.2941 12.7987 33.2941C12.8673 33.5598 12.7987 33.6276 12.8673 33.6927C12.8673 33.7605 12.8673 33.6249 12.8673 33.6249C12.8673 33.6927 13.0702 33.7577 13.0016 33.4921V33.4948Z" fill="#D58245"/>
<path fill-rule="evenodd" clip-rule="evenodd" d="M30.7175 33.6954C30.786 33.8282 30.786 33.896 30.8519 33.7632C30.7833 33.9638 30.6489 33.4297 30.6489 33.4975C30.6489 34.0316 30.6489 33.831 30.6489 33.831H30.7175C30.7175 33.5653 30.6489 33.6981 30.7175 33.6981V33.6954Z" fill="#D58245"/>
<path fill-rule="evenodd" clip-rule="evenodd" d="M9.22816 33.896C9.22816 33.6954 9.1596 33.9638 9.09378 33.8282C9.09378 33.896 9.09378 33.6276 9.09378 33.6954C9.09378 33.6954 9.16234 33.8282 9.16234 33.6954C9.16234 33.8282 9.16234 33.6954 9.16234 33.6276C8.82503 33.6276 8.89359 34.0262 9.2309 33.8933L9.22816 33.896Z" fill="#D58245"/>
<path fill-rule="evenodd" clip-rule="evenodd" d="M15.4944 16.9812C15.5629 16.9812 15.7631 17.1141 15.8975 17.049C15.8975 16.9162 15.7631 16.7833 15.8289 16.5149C15.6945 16.5827 15.7604 16.2492 15.626 16.3821C15.626 16.3143 15.626 16.2492 15.5574 16.2492C15.5574 16.317 15.4231 16.1815 15.3545 16.3821C15.4889 16.4499 15.4231 16.7156 15.3545 16.6478C15.5574 16.6478 15.3545 16.7806 15.4889 16.9812H15.4944Z" fill="#D58245"/>
<path fill-rule="evenodd" clip-rule="evenodd" d="M4.78271 17.1792C4.91709 17.4449 4.91709 17.5777 5.12003 17.5777C5.05147 17.1792 5.12003 17.312 5.18859 17.312C5.05421 17.312 5.05421 17.1792 4.98565 17.1114C4.91709 17.312 4.98565 16.9785 4.91709 17.2442C4.91709 17.0436 4.84853 17.1114 4.78271 17.1765V17.1792Z" fill="#D58245"/>
<path fill-rule="evenodd" clip-rule="evenodd" d="M13.0674 17.3798C13.0674 17.246 13.0445 17.1792 12.9988 17.1792C12.9988 17.4449 12.8645 17.4449 12.7301 17.312C12.7986 17.312 12.8645 17.2442 12.933 17.1792C12.7301 17.1792 12.6643 17.1114 12.5957 17.312C12.6643 17.3798 12.6643 17.1792 12.6643 17.312C12.5957 17.4449 12.6643 17.7106 12.5957 17.6455C12.5957 17.6907 12.5957 17.6907 12.5957 17.6455C12.7301 17.7133 12.6643 17.979 12.7986 17.7783C12.8672 17.6455 12.6643 17.4449 12.7986 17.4449C12.7986 17.3771 12.8672 17.5777 12.8672 17.5126C12.7986 17.5126 12.8672 17.5804 12.7986 17.7133C12.8443 17.7585 12.8891 17.7585 12.933 17.7133C12.7301 17.7133 12.8645 17.3798 13.0674 17.3798Z" fill="#D58245"/>
<path fill-rule="evenodd" clip-rule="evenodd" d="M12.5958 21.1754C12.5958 20.9748 12.6643 21.1076 12.5958 20.9748C12.7302 20.9748 12.6643 21.1076 12.7302 21.0425C12.8645 21.0425 12.7302 20.644 12.5272 20.8419C12.5958 20.9748 12.5958 21.3082 12.5958 21.1754Z" fill="#D58245"/>
<path fill-rule="evenodd" clip-rule="evenodd" d="M10.7776 21.3082C10.6432 21.4411 10.7776 21.4411 10.5746 21.5088C10.5746 21.6417 10.5746 21.3082 10.5746 21.376C10.5746 21.4438 10.5061 21.376 10.4402 21.376C10.3717 21.4438 10.5088 21.4438 10.6432 21.5088V21.7745C10.6432 21.7745 10.6432 21.7068 10.5746 21.7745V21.6417H10.5061C10.5746 21.5088 10.4375 22.0402 10.6404 22.108C10.5719 22.1758 10.7748 21.7745 10.5719 21.8423C10.7063 21.6417 10.7063 22.2408 10.7063 22.0429C10.9092 22.0429 10.7063 21.9752 10.7748 21.7772C10.8434 21.9779 10.9092 21.845 10.9778 21.6444C11.0463 21.7122 10.9092 21.9779 10.9092 21.9101C10.9778 21.7772 11.1779 21.9779 11.2465 21.8423C11.1779 21.6417 11.2465 22.0429 11.1779 21.8423C11.2465 21.5088 11.1094 21.6417 11.2465 21.3082C11.1121 21.5088 11.2465 20.9097 11.1121 21.1076C11.1121 21.1076 11.1121 21.1754 11.0436 21.1754C11.0436 21.376 11.1121 21.3082 11.0436 21.376C10.975 21.1103 10.975 20.8419 10.9092 20.9775C11.0436 20.8446 11.1121 20.9097 11.1121 20.9097C11.0436 20.7091 11.0436 21.2432 10.9092 20.9097C10.9092 20.644 10.9092 20.7768 10.9092 20.8419C11.0436 21.1754 11.1121 21.0425 11.1121 20.7091C10.9778 20.8419 10.9778 20.7091 10.9778 20.8419C10.8434 21.1076 10.8434 20.5762 10.9092 20.6413C10.9778 20.3756 10.7063 20.5084 10.7063 20.5735C10.6377 21.1049 11.0436 21.1049 10.7748 21.3055L10.7776 21.3082Z" fill="#D58245"/>
<path fill-rule="evenodd" clip-rule="evenodd" d="M27.6186 21.2432C27.6186 21.1754 27.6871 21.3109 27.6186 21.2432C27.6871 21.1103 27.6186 21.0425 27.4842 21.1754C27.5527 21.1754 27.5527 21.2432 27.6186 21.2432C27.4842 21.2432 27.4156 21.376 27.3498 21.2432C27.3498 21.4438 27.4842 21.4438 27.4842 21.376C27.4156 21.4438 27.4156 21.2432 27.3498 21.376C27.3498 21.4438 27.4184 21.5088 27.4184 21.5088C27.1496 21.5766 27.2154 21.4411 27.284 21.3082C27.0152 21.1754 27.0811 21.5089 27.0152 21.6417C27.0152 21.5739 26.8809 21.5739 26.8809 21.7095C27.0838 21.8423 26.9494 22.0429 27.0838 22.1758C27.0838 22.108 27.0152 22.1758 27.0152 22.1758C27.0152 22.3086 27.0838 22.3086 27.0838 22.3764C27.0152 22.1758 27.2182 22.1107 27.2867 22.2436C27.2182 21.9779 27.4211 21.9101 27.5555 22.0429C27.624 21.7773 27.5555 21.7773 27.624 21.7095C27.5555 21.7095 27.4897 21.7773 27.4897 21.7095C27.4897 21.7095 27.4897 21.5766 27.4897 21.6417C27.624 21.6417 27.624 21.2432 27.624 21.2432H27.6186Z" fill="#D58245"/>
<path fill-rule="evenodd" clip-rule="evenodd" d="M10.4402 22.2408C10.5088 22.2408 10.5088 22.1731 10.5088 21.9751C10.5088 22.2408 10.4402 22.108 10.4402 21.9751C10.3059 21.7095 10.5746 21.5766 10.5088 21.6417C10.3059 22.0402 10.4402 22.0402 10.4402 22.2408Z" fill="#D58245"/>
<path fill-rule="evenodd" clip-rule="evenodd" d="M25.8003 22.1731C25.7318 22.3059 25.7318 22.0402 25.7318 22.2409C25.6632 22.3086 25.6632 22.108 25.6632 22.1731C25.7318 22.3059 25.7318 22.2409 25.6632 22.3737C25.7318 22.3737 25.7976 22.4415 25.7976 22.1731H25.8003Z" fill="#D58245"/>
<path fill-rule="evenodd" clip-rule="evenodd" d="M13.136 23.9733C13.136 24.041 13.136 23.7076 13.136 23.8404C13.2045 23.7726 13.4047 23.6398 13.2703 23.3741C13.3389 23.3063 13.136 23.4419 13.2018 23.3063C13.0674 23.3741 13.0674 23.572 13.0674 23.572C12.933 23.2385 12.7986 24.2389 13.136 23.9705V23.9733Z" fill="#D58245"/>
<path fill-rule="evenodd" clip-rule="evenodd" d="M23.7107 23.9733C23.5763 23.9055 23.7107 23.9055 23.5077 23.8404C23.5077 23.9082 23.5763 24.041 23.5077 24.041C23.5077 24.041 23.3734 24.1088 23.3734 24.041C23.4419 24.1739 23.3048 24.3745 23.3048 24.6402C23.3048 24.5074 23.3048 24.6402 23.3048 24.708C23.3048 24.708 23.3734 24.8408 23.3734 24.7758C23.3734 24.5101 23.5077 24.708 23.5763 24.5751C23.5077 24.708 23.5077 24.4423 23.5077 24.4423C23.5763 24.4423 23.5763 24.708 23.7107 24.4423C23.6421 24.5101 23.7107 24.2417 23.6421 24.2417C23.5736 23.9082 23.7107 24.1739 23.7107 23.976V23.9733Z" fill="#D58245"/>
<path fill-rule="evenodd" clip-rule="evenodd" d="M24.7884 24.0383C24.7198 24.1061 24.7198 24.239 24.5854 24.304C24.5854 24.304 24.5169 24.2362 24.5169 24.1712C24.5854 24.239 24.6512 24.304 24.5854 24.1034C24.5169 24.1712 24.5169 24.1034 24.451 24.1034V24.4369C24.5196 24.1712 24.654 24.6375 24.7198 24.5046C24.7884 24.304 24.8542 24.1712 24.7884 24.0383Z" fill="#D58245"/>
<path fill-rule="evenodd" clip-rule="evenodd" d="M20.4773 28.5688C20.4773 28.5003 20.5466 28.6373 20.4773 28.5688V28.5688Z" fill="#D58245"/>
<path fill-rule="evenodd" clip-rule="evenodd" d="M20.546 28.7015C20.546 28.7015 20.4774 28.6337 20.4774 28.7015C20.4774 28.7693 20.4774 28.6337 20.4774 28.6337C20.4774 28.5659 20.4774 28.7015 20.4774 28.6337C20.2745 28.7015 20.4089 28.8343 20.4089 29.1C20.4774 28.8994 20.5432 28.7665 20.5432 28.7015H20.546Z" fill="#D58245"/>
<path fill-rule="evenodd" clip-rule="evenodd" d="M13.8079 34.0939C13.9423 34.0261 14.0767 34.0261 14.211 34.0939V34.0261L14.2796 33.8933C14.3482 33.8255 14.3482 34.0261 14.3482 34.0939C14.3482 34.1617 14.4167 34.0939 14.4167 34.0939C14.4167 34.0261 14.5511 33.8282 14.6197 33.9611C14.6882 33.8933 14.5511 33.8282 14.5511 33.7605C14.6197 33.8933 14.6855 33.6927 14.754 33.7605C14.754 33.8282 14.6855 33.8282 14.6855 33.8282C14.8884 33.8282 15.0228 33.7605 14.9542 33.6276C14.9542 33.6954 14.8857 33.6954 14.8857 33.6954C14.7513 33.3619 15.0886 33.3619 15.02 33.5625C15.223 33.4297 15.1544 33.3619 15.1544 33.164C15.0859 33.0962 15.0859 33.2318 15.0859 33.164C15.0859 33.0312 15.1544 33.164 15.1544 33.0962C15.02 32.8305 14.9515 33.0962 14.8171 33.0962C14.9515 33.0285 14.6827 32.8305 14.7485 32.8305C14.7485 32.5648 14.9515 32.6299 15.0859 32.7628C15.0173 32.7628 15.0173 32.8956 15.0173 32.9634C15.1517 32.8956 15.0173 32.5648 15.2861 32.7628C15.3546 32.695 15.2861 32.6299 15.2861 32.4293C15.2175 32.6299 15.1517 32.6299 15.0173 32.4293C15.0173 32.5621 15.0173 32.4971 14.9487 32.6299C14.9487 32.6299 14.9487 32.4293 14.9487 32.5621C14.9487 32.695 14.9487 32.5621 14.8802 32.5621C14.8802 32.695 14.8802 32.6299 14.8116 32.695C14.8116 32.6272 14.8116 32.5621 14.8802 32.5621C14.8345 32.517 14.8116 32.517 14.8116 32.5621C14.8116 32.5621 14.6772 32.6299 14.6087 32.5621C14.6087 32.5621 14.5401 32.6299 14.5401 32.695C14.5401 32.76 14.4058 32.5621 14.4058 32.695C14.4058 32.6272 14.4058 32.8278 14.4058 32.7628C14.3372 32.6299 14.3372 32.8956 14.2714 32.7628C14.3171 32.8965 14.2942 32.9634 14.2028 32.9634C14.2028 32.8956 14.2028 32.8305 14.1343 32.8305C14.1343 32.9634 14.2028 33.0312 14.2028 33.2291V33.6276C14.2028 33.6954 14.1343 33.6276 14.2028 33.6954C14.2028 33.6954 14.2028 33.7632 14.1343 33.7632C14.0657 33.7632 14.0657 33.6303 14.1343 33.5625C13.7969 33.6954 14.3372 34.0966 14.2028 33.7632C14.3372 33.8309 14.2714 33.9638 14.4058 34.0289C14.2028 34.0966 14.2028 33.9611 14.0026 33.8282C14.0483 33.8734 14.0483 33.9403 14.0026 34.0289C14.0026 34.0289 14.0026 33.8282 14.0026 33.896C13.9341 33.8282 13.9341 33.896 13.8682 33.9638C13.7339 33.896 13.7997 34.0316 13.7997 34.0966L13.8079 34.0939Z" fill="#D58245"/>
<path fill-rule="evenodd" clip-rule="evenodd" d="M13.0016 34.0939C13.0016 34.1617 13.0702 34.0262 13.0702 34.0262C13.0702 34.159 13.0702 34.0939 13.0016 34.0939H13.136C13.136 33.9611 13.2045 33.8933 13.2045 33.9611C13.2045 34.0939 13.2045 34.1617 13.136 34.0939H13.2045C13.2045 34.0939 13.2731 34.0262 13.2731 34.0939C13.4075 34.0262 13.5418 34.1617 13.6762 34.0939C13.6077 34.0262 13.4733 33.9611 13.4733 34.0262V33.8255C13.4276 33.8707 13.3828 33.8707 13.3389 33.8255C13.3389 33.7578 13.2704 33.8933 13.2704 33.9584C13.2704 33.9584 13.2018 33.8906 13.2018 33.9584C13.1332 34.159 12.7987 33.7578 12.7301 34.0262C12.8654 34.0262 12.955 34.0487 12.9989 34.0939H13.0016Z" fill="#D58245"/>
<path fill-rule="evenodd" clip-rule="evenodd" d="M15.5602 30.6318C15.5602 30.6996 15.5602 30.7647 15.5602 30.6318C15.6288 30.6996 15.6946 30.564 15.6946 30.564C15.6946 30.564 15.7631 30.3634 15.7631 30.4312C15.7631 30.2984 15.6946 30.3634 15.7631 30.2984C15.6288 30.4312 15.6946 30.3661 15.6288 30.2306C15.6288 30.2306 15.6288 30.3634 15.6288 30.1628C15.4944 30.2306 15.36 30.3634 15.2256 30.4285C15.2256 30.3607 15.2256 30.4963 15.2256 30.4285C15.1571 30.4963 15.0913 30.4963 14.9569 30.4963C14.8225 30.4963 14.6196 30.4285 14.4194 30.564C14.3508 30.564 14.4194 30.8297 14.3508 30.7647V30.6318C14.2164 30.6996 14.2823 30.8324 14.1479 30.7647V30.8975C14.1479 30.8297 14.0793 30.8975 14.0793 30.8975C14.0793 30.8975 14.0793 31.1632 14.0108 31.0981C14.0108 31.0304 13.9422 31.0304 13.9422 31.0981V31.0304C13.8736 30.8297 13.8736 31.231 13.8078 31.4289C13.6734 31.2283 13.6734 31.0304 13.8764 30.8948C13.742 30.8948 13.9449 30.5613 13.8078 30.6942C13.8764 30.762 13.8764 30.6264 13.9422 30.5613C13.8078 30.6291 13.6734 30.4936 13.5391 30.5613C13.4047 30.5613 13.2703 30.6942 13.1359 30.5613C13.1359 30.4936 13.2045 30.6291 13.2703 30.6291C13.1359 30.5613 13.1359 30.6969 13.0016 30.6969C13.0016 30.7647 12.933 30.8297 12.8672 30.6969C12.8672 30.7647 13.0016 30.7647 13.0701 30.8297C12.9357 31.1632 13.0701 31.1632 13.2045 31.1632V31.0954C13.2045 31.0954 13.1359 31.0276 13.2731 30.8948C13.2045 31.1605 13.6104 30.762 13.5418 31.0954C13.3389 31.0276 13.4074 30.9626 13.4733 31.296C13.4047 31.4289 13.4047 31.296 13.4047 31.296C13.3361 31.1632 13.4047 31.1632 13.4047 31.1632C13.2703 31.0954 13.3361 31.3638 13.2703 31.5617C13.3389 31.5617 13.3389 31.6295 13.3389 31.5617C13.3389 31.6295 13.2703 31.6295 13.2703 31.8274C13.4047 31.8274 13.4047 31.6946 13.3389 31.6268C13.3389 31.7597 13.4074 31.494 13.4074 31.6268C13.4074 31.6946 13.4074 31.8925 13.4074 31.7597C13.5418 31.494 13.5418 31.6268 13.6104 31.8274C13.4074 31.8274 13.6789 32.1609 13.5418 32.226C13.6104 32.0931 13.6762 32.226 13.7447 32.1582C13.6762 32.226 13.6104 31.9576 13.6104 32.0904C13.7448 32.0226 13.7447 31.8247 13.8133 32.0904C13.8133 32.0226 13.8819 32.1582 13.9477 32.0904C13.9477 32.1582 13.9477 32.3561 14.0162 32.2233C14.0162 32.0226 14.0848 32.0226 14.0848 32.0904C14.0848 32.1582 14.1534 31.9576 14.1534 31.9576C14.1534 32.0253 14.2219 32.0253 14.2219 32.0253C14.3572 32.0253 14.4468 31.9811 14.4907 31.8925C14.3563 31.9603 14.4907 31.6919 14.2877 31.8925C14.2877 31.8247 14.2877 31.6268 14.2877 31.6919C14.0848 31.8247 14.2192 31.2933 14.2192 31.2256C14.1506 31.1578 14.1506 31.2256 14.1506 31.2933C14.1506 31.2933 14.0821 30.9599 14.2192 30.9599C14.2192 31.0276 14.1506 31.0276 14.2192 31.0927C14.2192 31.0249 14.2877 31.0249 14.2877 31.0927C14.2877 31.0249 14.2877 30.8921 14.2877 30.9599C14.2877 30.9599 14.3563 30.7592 14.3563 30.827V30.6942C14.4249 30.5613 14.3563 30.762 14.4249 30.6942C14.4249 30.5613 14.3563 30.5613 14.2905 30.4936C14.4934 30.6264 14.4249 30.6942 14.5592 30.7592C14.5592 30.6915 14.2905 31.0249 14.2905 30.9599C14.4249 31.3584 14.6278 30.9599 14.7622 30.8921C14.6936 30.7592 14.7622 30.7592 14.7622 30.5586C14.7622 30.4908 14.8965 30.5586 14.8965 30.5586C14.8965 30.4908 14.9651 30.4908 15.0309 30.4908C15.0309 30.4231 14.9624 30.4908 14.9624 30.358C15.0309 30.358 15.1653 30.2252 15.1653 30.4908L15.2339 30.6237L15.1653 30.7565C15.1653 30.7565 15.1653 30.8894 15.1653 30.8243C15.5026 30.6915 15.2997 31.09 15.2339 31.2228C15.3682 31.2906 15.5026 31.09 15.637 31.0222C15.637 30.8894 15.5026 30.9544 15.4341 30.8894C15.5026 30.8216 15.5026 30.6888 15.637 30.7565C15.637 30.6237 15.5026 30.6237 15.4341 30.6237C15.5026 30.7565 15.4341 30.7565 15.3655 30.8243C15.4999 30.6915 15.1626 30.4258 15.4341 30.4908C15.637 30.7565 15.5026 30.5586 15.5684 30.6237L15.5602 30.6318Z" fill="#D58245"/>
<path fill-rule="evenodd" clip-rule="evenodd" d="M16.032 30.6318C16.1006 30.564 16.1006 30.4989 16.2349 30.4989C16.2349 30.5875 16.2578 30.6761 16.3035 30.7646C16.1691 30.7646 16.1006 30.6318 16.0347 30.8324L15.766 30.6318C15.8346 30.7646 15.9689 30.9653 16.1033 30.8975V31.0303C16.0347 31.296 16.3721 31.0303 16.3062 31.231C16.3748 31.1632 16.4406 31.231 16.4406 31.231C16.3721 31.3638 16.8437 31.4966 16.8437 31.231C16.7094 31.2987 16.5064 31.2987 16.575 31.0981C16.4406 31.0303 16.4406 31.1659 16.3721 30.9653C16.4406 31.0981 16.575 30.9653 16.575 30.8975C16.6436 31.0303 16.7779 31.0303 16.8437 31.231C16.7094 31.0303 16.6408 30.6318 16.8437 30.6318C16.7094 30.8324 17.0467 30.8324 17.0467 30.6318C16.9123 30.6996 16.8437 30.6318 16.9123 30.4312C16.7779 30.4312 16.7779 30.2983 16.6436 30.2305C16.6436 30.2983 16.6436 30.3634 16.575 30.3634H16.5064C16.7094 30.1628 16.3035 29.9649 16.6408 29.8971C16.6408 29.7642 16.5723 29.6965 16.6408 29.6314C16.7094 29.6992 16.7752 29.6314 16.7752 29.6992C16.7752 29.4985 16.7066 29.5663 16.7066 29.6314C16.7066 29.5636 16.7752 29.5636 16.7752 29.4308C16.7752 29.6314 16.9096 29.4985 16.9096 29.5636C16.9096 29.2301 16.7752 29.4958 16.7066 29.363C16.6381 29.1624 16.7752 28.9644 16.5723 28.9644C16.5723 29.2301 16.7066 29.2301 16.6408 29.2979C16.6408 29.1651 16.4379 29.4308 16.5064 29.4308C16.4379 29.4985 16.3721 29.2979 16.3721 29.2979C16.4406 29.1651 16.5064 29.3657 16.5064 29.2979C16.3721 29.0973 16.5064 29.1651 16.575 29.2301C16.5064 29.0973 16.3721 28.9644 16.2377 29.0973C16.3721 29.2979 16.1691 29.4308 16.3062 29.6965C16.1719 29.6965 16.0375 29.4308 16.1719 29.363C16.0375 29.363 16.0375 29.6965 15.9031 29.4308V29.5636C15.9717 29.4308 16.0375 29.5636 16.106 29.6314C16.0375 29.6314 15.9717 29.6314 16.0375 29.6992C16.1719 29.6314 16.106 29.7669 16.2404 29.6992C16.2404 29.7669 16.2404 29.9649 16.1719 29.8998C16.2404 29.7669 16.0375 29.832 16.1033 29.6992C16.0347 29.6314 15.9689 29.8998 15.9004 29.8998C16.0347 29.832 16.0347 29.8998 16.1033 29.8998C16.1033 30.1655 15.8346 29.832 15.766 30.1004C15.8346 30.2333 15.9004 30.1004 15.9004 30.2333C15.8318 30.2333 15.8318 30.1655 15.766 30.1655C15.766 30.2333 15.8346 30.564 15.9004 30.3661C15.9004 30.3661 16.1033 30.3661 16.1033 30.2333C16.1033 30.301 16.0347 30.4339 16.0347 30.4339C16.0347 30.5017 16.1033 30.6345 16.0347 30.6345L16.032 30.6318Z" fill="#D58245"/>
<path fill-rule="evenodd" clip-rule="evenodd" d="M31.4579 29.3006C31.4579 29.3684 31.5923 29.5013 31.5923 29.5663C31.5466 29.5663 31.5237 29.5889 31.5237 29.6341C31.7266 29.6341 31.6581 29.4335 31.6581 29.5013C31.6581 29.4335 31.7266 29.2356 31.7266 29.5013C31.7266 29.1678 31.6581 29.569 31.4579 29.3006Z" fill="#D58245"/>
<path fill-rule="evenodd" clip-rule="evenodd" d="M31.4579 29.4986C31.5265 29.5663 31.3236 29.3657 31.3236 29.5663C31.3236 29.4986 31.3921 29.767 31.3236 29.6992C31.255 29.832 31.255 29.5663 31.255 29.4986C31.255 29.6992 31.3236 29.832 31.3894 29.8971C31.3208 29.6965 31.5238 29.8293 31.5238 29.4986C31.5238 29.4986 31.4552 29.2329 31.4552 29.4986H31.4579Z" fill="#D58245"/>
<path fill-rule="evenodd" clip-rule="evenodd" d="M15.0227 32.0958C14.977 32.0958 14.9542 32.0732 14.9542 32.0281C14.8198 32.0281 14.9542 32.0958 14.8856 32.0958C14.8856 32.0958 14.7513 31.6973 14.8856 31.7624C14.8856 31.6738 14.8856 31.6512 14.8856 31.6946C14.8856 31.6268 14.8856 31.7624 14.8856 31.6946C14.7513 31.7624 14.7513 31.6268 14.6827 31.5617C14.6827 31.8274 14.5483 31.5617 14.4139 31.6295C14.4825 31.8301 14.6169 31.8301 14.7513 31.7624C14.7513 31.963 14.7513 31.8952 14.6827 31.8952C14.7513 31.963 14.8171 32.0281 14.8171 32.1609C14.8856 32.1609 15.02 32.2287 15.02 32.0931L15.0227 32.0958Z" fill="#D58245"/>
<path fill-rule="evenodd" clip-rule="evenodd" d="M16.8409 31.8301C16.8409 31.8301 16.8409 31.6295 16.7723 31.6295C16.7723 31.6295 16.7037 31.6973 16.6379 31.6973C16.6379 31.6295 16.7065 31.6973 16.7065 31.5644C16.5721 31.6322 16.6379 31.4966 16.5035 31.5644C16.5721 31.6973 16.6379 31.4966 16.6379 31.7651C16.6379 31.6973 16.6379 31.8328 16.6379 31.7651C16.7065 31.7651 16.7723 31.6973 16.8409 31.8328V31.8301Z" fill="#D58245"/>
<path fill-rule="evenodd" clip-rule="evenodd" d="M16.5036 32.2965C16.5722 32.3642 16.5722 32.2965 16.638 32.2965V32.4293C16.7724 32.2965 16.7066 32.0958 16.5695 32.0958C16.638 32.0281 16.7038 32.0281 16.7724 32.0281C16.638 31.8952 16.7038 31.8952 16.638 32.0281C16.5695 31.9603 16.3693 32.1609 16.5036 32.2937V32.2965Z" fill="#D58245"/>
<path fill-rule="evenodd" clip-rule="evenodd" d="M15.3573 31.6973C15.3116 31.6521 15.2668 31.6295 15.223 31.6295C15.1544 31.8952 15.3573 31.8952 15.2915 32.0958H15.5603C15.4259 32.0281 15.4259 31.963 15.2915 31.8952C15.2915 31.8274 15.3601 31.8274 15.3601 31.6946L15.3573 31.6973Z" fill="#D58245"/>
<path fill-rule="evenodd" clip-rule="evenodd" d="M11.1149 32.4971C11.1149 32.5648 10.9805 32.3642 10.9805 32.4293C11.049 32.4971 11.1149 32.1636 11.049 32.3615C10.9805 32.5621 10.9805 32.1609 10.9147 32.2287C10.9832 32.5621 10.9147 32.5621 10.9147 32.5621L11.1176 32.4944L11.1149 32.4971Z" fill="#D58245"/>
<path fill-rule="evenodd" clip-rule="evenodd" d="M8.55617 33.0962C8.69055 32.9634 8.69055 32.8305 8.62473 32.7628C8.62473 32.8305 8.75911 32.695 8.69329 32.695C8.62473 32.7628 8.69329 32.6272 8.62473 32.4944C8.62473 32.4492 8.60188 32.4492 8.55617 32.4944C8.55617 32.4266 8.55617 32.5621 8.55617 32.5621C8.55617 32.4293 8.62473 32.5621 8.62473 32.5621C8.35598 32.6299 8.55617 32.695 8.55617 33.0962Z" fill="#D58245"/>
<path fill-rule="evenodd" clip-rule="evenodd" d="M7.27557 33.9611C7.40995 34.0288 7.54432 33.8282 7.54432 33.8282C7.54432 33.8282 7.47576 33.896 7.40995 33.896C7.40995 33.896 7.40995 33.8282 7.34139 33.6954C7.34139 33.7632 7.34139 33.8282 7.27283 33.9611H7.27557Z" fill="#D58245"/>
<path fill-rule="evenodd" clip-rule="evenodd" d="M33.276 37.1575C33.2074 37.2253 33.1416 37.0897 33.0731 37.2253C33.1416 37.2931 33.0731 37.3581 32.8701 37.3581C32.9387 37.4259 32.8701 37.5588 32.9387 37.491C32.8701 37.4232 32.8701 37.5588 32.8701 37.491C32.9387 37.6238 32.8701 37.7567 33.0045 37.8244C33.0045 37.6238 32.9359 37.6238 32.9359 37.6238C33.0045 37.6916 33.0703 37.556 32.9359 37.556C33.0045 37.6238 33.0045 37.6889 33.0045 37.6889C33.1389 37.4883 33.0731 37.1548 33.2732 37.3554C33.3418 37.2226 33.2732 37.0897 33.2732 37.1548L33.276 37.1575Z" fill="#D58245"/>
<path fill-rule="evenodd" clip-rule="evenodd" d="M27.8873 34.5602C27.8188 34.4925 27.55 34.4274 27.4842 34.1617C27.2813 34.2295 27.1469 33.896 26.8781 33.896C26.7438 33.9638 26.6094 33.6954 26.475 33.896C26.3406 33.896 26.2063 33.896 26.1377 34.1617C26.1377 34.1617 26.3406 34.2295 26.5408 34.2946C26.7438 34.2946 26.944 34.5602 26.944 34.4274C27.0783 34.3596 27.2813 34.3596 27.4156 34.4274C27.55 34.628 27.6844 34.7609 27.8873 34.5602Z" fill="#D58245"/>
<path fill-rule="evenodd" clip-rule="evenodd" d="M19.5339 29.767C19.6683 29.8347 19.6683 29.6341 19.6683 29.6341C19.6683 29.6341 19.8027 29.767 19.7369 29.6341C19.5339 29.6341 19.6025 29.5013 19.5339 29.3006C19.6025 29.5013 19.3995 29.6341 19.5339 29.767Z" fill="#D58245"/>
<path fill-rule="evenodd" clip-rule="evenodd" d="M7.61286 32.5621C7.74724 32.2964 7.61286 32.2287 7.5443 32.2287C7.47574 32.2287 7.47574 32.3615 7.61286 32.5621Z" fill="#D58245"/>
<path fill-rule="evenodd" clip-rule="evenodd" d="M5.05149 33.9611C5.18587 33.8282 5.32025 33.9611 5.32025 33.7605C5.32025 33.7605 5.18587 33.7605 5.18587 33.6927C5.11731 33.5598 5.11731 33.4921 5.05149 33.4921C5.12005 33.5598 4.91712 33.7578 4.98293 33.6249C4.91437 33.7578 5.18587 33.8906 5.05149 33.9584V33.9611Z" fill="#D58245"/>
<path fill-rule="evenodd" clip-rule="evenodd" d="M21.6236 33.896C21.5551 33.8282 21.6236 34.0966 21.6922 34.0289C21.6922 33.896 21.7607 33.7632 21.6922 33.6303C21.7607 33.5625 21.7607 33.7632 21.7607 33.6981C21.7607 33.5653 21.7607 33.7659 21.7607 33.6303C21.6264 33.4975 21.5578 33.6981 21.492 33.896C21.4234 33.896 21.492 33.7632 21.4234 33.8282C21.4234 33.896 21.4234 33.9611 21.3549 34.0289C21.4892 33.9611 21.4892 33.896 21.6236 33.896Z" fill="#D58245"/>
<path fill-rule="evenodd" clip-rule="evenodd" d="M20.6802 27.1019C20.6802 27.1697 20.4773 27.3676 20.4773 27.3676C20.6117 27.5004 20.6117 27.2348 20.6802 27.1019Z" fill="#D58245"/>
<path fill-rule="evenodd" clip-rule="evenodd" d="M20.6803 27.1019C20.6803 27.1697 20.7489 26.9691 20.7489 26.9691C20.7489 27.0368 20.6803 27.1019 20.6803 27.1019Z" fill="#D58245"/>
<path fill-rule="evenodd" clip-rule="evenodd" d="M30.8518 34.5602C30.8518 34.6931 30.8518 34.2268 30.8518 34.3596C30.9204 34.4925 30.8518 34.4925 30.8518 34.5602Z" fill="#D58245"/>
<path fill-rule="evenodd" clip-rule="evenodd" d="M30.9176 34.0939C30.9176 33.8933 30.849 34.3596 30.849 34.3596C30.9176 34.3596 30.9834 34.2918 30.9176 34.0939Z" fill="#D58245"/>
<path fill-rule="evenodd" clip-rule="evenodd" d="M26.8095 22.5065C26.8095 22.4388 26.6066 22.7722 26.6066 22.84C26.4722 22.9078 26.538 22.6394 26.538 22.6394C26.538 22.6394 26.4036 22.7072 26.4036 22.5716C26.4036 22.6394 26.4036 22.7044 26.3351 22.7044C26.2665 22.6367 26.2007 22.6367 26.1321 22.6367C26.1321 22.6367 26.1321 22.7695 26.1321 22.7044C26.2007 22.6367 26.1321 22.5716 26.2007 22.6367C26.2693 22.8373 26.1321 22.8373 26.2007 22.9701C26.2693 22.9701 26.2693 22.7695 26.2693 22.9701C26.3378 23.103 26.2693 23.2358 26.2007 23.2358L26.2693 23.3036C26.1349 23.3036 26.0663 22.9701 26.0005 23.1708V22.9051C25.5974 22.9729 26.0691 23.2385 25.7976 23.3036C25.8661 23.0379 25.4603 23.1708 25.5946 23.3036C25.5946 23.103 25.7976 23.3036 25.7976 23.3714C25.7976 23.3036 25.5946 23.4392 25.5946 23.572C25.5946 23.5042 25.6632 23.3714 25.5946 23.4392C25.5946 23.572 25.4603 23.7726 25.5946 23.9055C25.5261 23.9055 25.5261 23.7726 25.4603 23.9055C25.3917 23.9733 25.5288 23.9055 25.5288 23.9733C25.4831 24.0184 25.4603 24.0184 25.4603 23.9733C25.4603 23.8404 25.4603 23.7726 25.3917 23.7076C25.3917 23.9733 25.3231 23.6398 25.2573 23.7753C25.2573 23.7076 25.3917 23.9082 25.3259 23.8431C25.2573 24.1088 25.3944 23.9109 25.3944 23.976C25.463 23.9082 25.463 24.1766 25.463 24.3094C25.4173 24.2643 25.3944 24.2868 25.3944 24.3772H25.5974C25.7318 24.3094 25.463 24.3094 25.5974 24.1115C25.5974 24.3122 25.7318 24.3122 25.7318 24.1793C25.8003 24.3799 25.6632 24.5778 25.8003 24.7785C25.7318 24.7107 25.7318 24.6456 25.7318 24.7785C25.8003 24.9113 25.6632 24.9791 25.7318 25.0442C25.7318 24.7785 25.8661 25.3098 25.9347 25.0442C25.8661 25.1119 25.9347 24.9113 25.9347 24.9113C26.0033 25.177 26.3378 25.0442 26.1376 24.8435C26.1376 24.7107 26.272 24.8435 26.272 24.7107C26.2034 24.7107 26.1376 24.7785 26.1376 24.6429C26.4749 24.5751 26.2062 25.1092 26.4749 25.0414C26.4749 24.9737 26.5435 24.9737 26.6093 24.9737C26.4749 24.8408 26.272 24.773 26.3406 24.5074C26.3406 24.6402 26.3406 24.5751 26.4091 24.6402C26.4091 24.5074 26.3406 24.5074 26.3406 24.3745C26.4091 24.2417 26.4091 24.4423 26.4749 24.3745C26.4064 24.3745 26.4749 24.2417 26.4064 24.2417C26.2034 24.3745 26.2034 24.1739 26.0033 24.1088C26.1376 24.1088 26.0718 23.976 26.2062 23.976C26.2519 24.0212 26.2519 24.088 26.2062 24.1766C26.2747 24.1088 26.4091 23.976 26.2747 23.9109C26.2747 23.9109 26.2747 23.9787 26.2062 23.9787C26.1376 23.5801 26.3406 23.713 26.2747 23.3117C26.1404 23.3117 26.1404 23.3795 26.0718 23.3117C26.2747 23.3117 26.2747 23.1789 26.4749 23.3117C26.5435 23.244 26.4749 23.0461 26.4749 23.0461C26.4749 22.9783 26.3406 23.1138 26.3406 23.0461C26.4749 23.1138 26.6093 22.9783 26.6779 22.9132C26.8808 22.8454 26.8808 22.7126 26.8123 22.5147L26.8095 22.5065Z" fill="#D58245"/>
<path fill-rule="evenodd" clip-rule="evenodd" d="M14.2796 32.6299C14.2796 32.5621 14.2111 32.1636 14.2111 32.1636C14.2111 32.2965 14.2111 32.4971 14.2796 32.6299Z" fill="#D58245"/>
<path fill-rule="evenodd" clip-rule="evenodd" d="M13.9451 30.7646C13.9451 30.7646 14.148 30.9653 14.148 30.8975C14.148 30.6969 14.0136 30.8297 13.9451 30.7646Z" fill="#D58245"/>
<path fill-rule="evenodd" clip-rule="evenodd" d="M16.1663 30.2333C16.1663 30.301 15.6946 30.499 15.6946 30.5667C15.829 30.3661 16.0319 30.4339 16.1663 30.2333Z" fill="#D58245"/>
<path fill-rule="evenodd" clip-rule="evenodd" d="M13.2018 33.7605C13.2703 33.8282 13.2703 33.8933 13.3362 33.8282C13.3362 33.7605 13.2018 33.4948 13.2018 33.5625V33.7632V33.7605Z" fill="#D58245"/>
<path fill-rule="evenodd" clip-rule="evenodd" d="M13.136 33.4948C13.136 33.6276 13.2045 33.5625 13.2045 33.5625C13.2045 33.6303 13.2045 33.5625 13.136 33.4948Z" fill="#D58245"/>
<path fill-rule="evenodd" clip-rule="evenodd" d="M15.1571 30.8324H15.2915C15.2458 30.7872 15.201 30.7872 15.1571 30.8324Z" fill="#D58245"/>
<path fill-rule="evenodd" clip-rule="evenodd" d="M15.0228 30.9653C15.0228 30.8324 15.0913 30.7647 15.1571 30.8324H14.8198C14.8884 30.9002 14.9542 30.9002 15.0228 30.9653Z" fill="#D58245"/>
<path fill-rule="evenodd" clip-rule="evenodd" d="M13.9451 30.9653C13.9451 31.033 13.9451 31.231 13.9451 31.1659C14.0136 31.0981 13.9451 30.9653 13.9451 30.9653Z" fill="#D58245"/>
<path fill-rule="evenodd" clip-rule="evenodd" d="M13.945 30.9653C13.945 30.9653 13.945 30.6996 13.945 30.7647C13.8764 30.8975 13.8764 30.9653 13.945 30.9653Z" fill="#D58245"/>
<path fill-rule="evenodd" clip-rule="evenodd" d="M7.34128 31.6295C7.34128 31.6973 7.47566 31.0954 7.47566 31.0954C7.34128 31.0954 7.27272 31.4289 7.34128 31.6295Z" fill="#D58245"/>
<path fill-rule="evenodd" clip-rule="evenodd" d="M9.43112 31.6295C9.43112 31.6973 9.43112 31.5617 9.43112 31.4289C9.22818 31.0954 9.29674 31.7623 9.43112 31.6295Z" fill="#D58245"/>
<path fill-rule="evenodd" clip-rule="evenodd" d="M10.3059 32.8305C10.3059 32.7628 10.3059 32.6299 10.2373 32.6977C10.2373 32.8305 10.3059 32.8305 10.3059 32.8305Z" fill="#D58245"/>
<path fill-rule="evenodd" clip-rule="evenodd" d="M5.18582 33.0284L4.84851 32.8278C4.98289 32.8956 5.05145 33.1613 5.18582 33.0284Z" fill="#D58245"/>
<path fill-rule="evenodd" clip-rule="evenodd" d="M19.7369 33.6276C19.7369 33.8282 19.8713 33.2942 19.8713 33.3619C19.8028 33.3619 19.7369 33.6276 19.7369 33.6276Z" fill="#D58245"/>
<path fill-rule="evenodd" clip-rule="evenodd" d="M19.6685 33.896C19.737 33.896 19.737 33.8282 19.737 33.6303C19.737 33.4975 19.4683 34.0289 19.4683 34.0966C19.5368 33.9638 19.6026 33.9638 19.6712 33.896H19.6685Z" fill="#D58245"/>
<path fill-rule="evenodd" clip-rule="evenodd" d="M11.5179 33.1613C11.5179 33.0935 11.3835 33.7604 11.3835 33.7604C11.5179 33.5598 11.5865 33.3619 11.5179 33.1613Z" fill="#D58245"/>
<path fill-rule="evenodd" clip-rule="evenodd" d="M8.01595 33.6954C8.01595 33.6954 7.74719 33.7632 7.74719 33.6954C7.88157 33.8282 7.95013 33.9611 8.01595 33.6954Z" fill="#D58245"/>
<path fill-rule="evenodd" clip-rule="evenodd" d="M7.61292 33.4948C7.61292 33.5625 7.68147 33.6954 7.61292 33.6954C7.61292 33.6276 7.81585 33.6954 7.81585 33.6954C7.74729 33.5625 7.68147 33.6276 7.61292 33.4948Z" fill="#D58245"/>
<path fill-rule="evenodd" clip-rule="evenodd" d="M8.48775 33.6954C8.48775 33.8282 8.21899 33.6276 8.21899 33.6954C8.28755 33.6954 8.35337 33.8282 8.48775 33.6954Z" fill="#D58245"/>
<path fill-rule="evenodd" clip-rule="evenodd" d="M8.08447 33.5625C8.08447 33.5625 8.08447 33.7632 8.08447 33.6954C8.08447 33.6276 8.21885 33.6276 8.21885 33.6954C8.15029 33.6276 8.15029 33.6954 8.08447 33.5625Z" fill="#D58245"/>
<path fill-rule="evenodd" clip-rule="evenodd" d="M30.2457 34.3623C30.2457 34.2945 30.4487 34.563 30.4487 34.4952C30.3801 34.4952 30.3801 34.0966 30.2457 34.3623Z" fill="#D58245"/>
<path fill-rule="evenodd" clip-rule="evenodd" d="M12.7301 18.9766C12.6616 19.1095 12.5272 19.443 12.6616 19.443C12.593 19.5107 12.7301 18.776 12.7301 18.9766Z" fill="#D58245"/>
<path fill-rule="evenodd" clip-rule="evenodd" d="M10.1714 33.1613C10.1714 33.1613 10.2399 33.0935 10.2399 33.1613C10.2399 33.0935 10.2399 33.2291 10.1714 33.1613Z" fill="#D58245"/>
<path fill-rule="evenodd" clip-rule="evenodd" d="M10.1715 33.1613C10.1715 33.2291 9.83423 33.2291 9.83423 33.1613C9.96861 33.427 10.103 33.1613 10.1715 33.1613Z" fill="#D58245"/>
<path d="M29.571 15.7802C29.571 15.848 29.6396 15.9809 29.6396 16.0459C29.8425 16.0459 29.7082 16.0459 29.571 15.7802Z" fill="white"/>
<path d="M29.168 15.7151C29.2366 15.5823 29.2366 15.9158 29.3024 15.6474C29.2338 15.5796 29.2338 15.6474 29.2338 15.6474C29.2338 15.6926 29.2567 15.6483 29.3024 15.5145C29.2338 15.116 29.0994 15.3139 29.168 15.7151Z" fill="white"/>
<path d="M30.4459 14.6497C30.5145 14.7174 30.6489 14.5168 30.7832 14.7825C30.7832 14.5819 30.6489 14.8503 30.7147 14.7147C30.7832 14.3162 30.7147 14.5819 30.7832 14.7147C30.7832 14.3813 30.7147 14.5819 30.5803 14.5819C30.5117 14.6497 30.5803 14.7147 30.4459 14.6497Z" fill="white"/>
<path d="M34.894 14.384C34.894 14.6497 35.0284 14.3162 34.894 14.384C34.894 14.3162 34.9626 14.5846 34.9626 14.4518C34.9626 14.384 34.894 14.4518 34.894 14.4518C34.894 14.8503 34.9626 14.7852 34.9626 14.5846C35.0312 14.2511 35.0312 14.5168 34.9626 14.4518C35.0312 14.5195 35.0312 14.4518 35.097 14.4518C35.097 14.5195 35.097 13.9854 35.097 14.384C35.0284 14.3162 35.0284 14.7825 35.0284 14.384C35.0284 14.384 35.097 14.3162 35.0284 14.2511C34.9599 14.384 34.894 14.1834 34.894 14.384Z" fill="white"/>
<path d="M31.0546 15.0482C31.189 15.5145 31.189 15.2488 31.3234 15.1811C31.3919 14.7147 31.1204 15.3817 31.189 14.9804C31.1204 15.1133 31.1204 14.9804 31.1204 14.9804C31.1204 14.7798 31.1204 15.5145 31.1204 15.0482C31.1204 15.116 31.0519 14.9154 31.0519 15.0482H31.0546Z" fill="white"/>
<path d="M30.9862 13.3185C31.0548 12.92 30.9862 13.5191 31.0548 13.4514C31.0548 13.2507 31.1233 13.2507 31.1233 13.2507C31.0548 13.1179 30.989 13.2507 30.9204 13.2507C30.989 13.4514 30.989 13.3185 30.989 13.3185H30.9862Z" fill="white"/>
<path d="M10.6432 37.5587C10.5747 37.8244 10.5747 37.7594 10.6432 38.0251C10.6432 37.9573 10.7118 38.0251 10.7776 38.0251C10.709 37.8244 10.7776 37.8244 10.912 37.6265C10.7776 37.5587 10.8434 37.7594 10.709 37.6943C10.709 37.6265 10.7776 37.5615 10.6405 37.5615L10.6432 37.5587Z" fill="white"/>
<path d="M18.9965 28.368C19.1309 28.1023 19.1994 28.4358 19.3338 28.2352H19.1994C19.268 28.1023 19.268 27.9695 19.3338 27.9695C19.1309 27.8366 18.8621 28.1023 18.9965 28.368Z" fill="white"/>
<path d="M23.7107 26.7034C24.048 26.7712 23.9794 26.7712 24.3168 26.9691C24.2482 26.7034 24.4511 26.9013 24.6541 26.8362C24.7884 26.3021 24.3168 26.5705 24.1166 26.4377C24.1166 26.5705 24.048 26.6383 23.9822 26.6383C23.9136 26.5705 23.9822 26.5055 23.8478 26.4377C23.7793 26.6383 23.7134 26.5705 23.7134 26.7034H23.7107Z" fill="white"/>
<path d="M21.6895 25.703C21.758 26.0364 22.1611 26.0364 22.2955 25.9686C22.227 25.9009 22.0926 25.9686 22.0926 25.9009C22.1611 25.8331 22.1611 25.9686 22.2955 25.9686C22.3641 25.6352 22.0926 25.8358 21.8924 25.6352C21.758 25.703 21.8924 25.9009 21.6895 25.703Z" fill="white"/>
<path d="M24.1823 25.6379C24.5196 26.0364 24.8569 25.3044 24.3166 25.2394C24.3166 25.3722 24.5196 25.44 24.451 25.6379C24.3824 25.5051 24.3166 25.5701 24.1823 25.6379Z" fill="white"/>
<path d="M28.0902 26.0364C28.1587 26.0364 28.0216 26.3021 28.0216 26.3021C27.8187 26.5678 28.6277 26.3021 28.0902 26.0364Z" fill="white"/>
<path d="M25.7318 25.1038C25.7318 25.1038 25.6632 25.1716 25.6632 25.1038C25.6632 25.1038 25.6632 24.7053 25.5947 24.6375L25.4603 24.5697C25.3918 24.7026 25.5947 24.7026 25.5947 24.7703C25.3259 24.9032 25.5947 25.2367 25.4603 25.3695C25.5947 25.4373 25.5947 25.1689 25.6632 25.1689C25.6632 25.3017 25.6632 25.2367 25.5947 25.3695C25.6632 25.3695 25.6632 25.4373 25.6632 25.4373C25.5947 25.3044 25.7318 25.3044 25.7318 25.1038Z" fill="white"/>
<path d="M25.7318 24.5724C25.8662 24.6402 25.8662 24.5046 25.9347 24.5046C25.8004 24.6375 25.8004 24.7053 26.0033 24.8381C26.0719 24.6375 25.8689 24.1061 25.7346 24.5724H25.7318Z" fill="white"/>
<path d="M30.583 24.7053C30.8518 24.7053 30.583 24.773 30.583 24.773C30.583 24.8408 30.7174 24.773 30.6516 24.9059C30.583 24.9737 30.583 24.773 30.583 24.9059C30.583 24.9737 30.6516 25.0387 30.6516 25.1716C30.7859 25.0387 30.7859 24.9059 30.6516 24.9059C30.7201 24.8381 30.7859 24.773 30.9203 24.8381V24.7053H30.7859C30.7174 24.6375 30.9203 24.5046 30.7859 24.4396C30.7859 24.7053 30.583 24.4396 30.583 24.7053Z" fill="white"/>
<path d="M25.3286 22.5743C25.463 22.5743 25.3972 22.7749 25.463 22.84C25.463 22.84 25.8003 22.9078 25.8661 22.9078C25.6632 22.7749 25.463 22.4415 25.3286 22.5743Z" fill="white"/>
<path d="M26.1348 21.7745C26.0662 21.9074 26.2692 21.8423 26.3377 21.9074C26.3377 21.9752 26.2692 22.0402 26.2692 22.108C26.2006 22.0402 26.1348 22.0402 26.1348 22.108C26.2034 22.108 26.1348 22.1758 26.1348 22.2408C26.6065 22.3086 26.6065 21.7068 26.1348 21.7745Z" fill="white"/>
<path d="M28.4933 21.1754C28.5618 21.1754 28.5618 21.2432 28.6276 21.2432C28.6962 20.9097 28.4247 21.1754 28.3589 20.8446C28.0901 21.1103 28.4275 21.0452 28.3589 21.3787C28.5618 21.4465 28.4275 21.2459 28.5618 21.3109C28.5618 21.1781 28.4275 21.3109 28.4933 21.1781C28.4247 21.1103 28.4247 21.1781 28.4933 21.1781V21.1754Z" fill="white"/>
<path d="M11.1149 38.4236C10.9805 38.5564 10.7117 38.223 10.5773 38.1579C10.5773 38.4236 10.7117 38.5565 10.5088 38.7571C10.7117 38.7571 10.5088 39.2912 10.7117 39.0228C10.7117 39.0905 10.6432 39.2234 10.7117 39.2234C10.7803 39.0905 10.9147 39.2234 10.9805 39.1556C10.8461 39.0228 10.9119 38.8221 11.049 38.8221C10.9147 38.7544 11.252 38.5564 11.1176 38.4236H11.1149Z" fill="white"/>
<path d="M14.8857 39.0905C14.8857 39.1583 14.8857 39.2912 14.9542 39.3562C15.0228 39.2234 15.2915 39.0905 15.3574 39.2885C15.223 39.3562 15.1544 39.2207 15.0201 39.4213C15.3574 39.4891 15.4232 39.687 15.5576 39.4213C15.489 39.3535 15.4232 39.4891 15.4232 39.3535C15.5576 39.2857 15.4917 39.0201 15.6919 39.0201C15.6919 39.0201 15.6919 39.0878 15.7605 39.0201C15.6261 38.8194 15.7605 38.7544 15.4917 38.7544C15.3574 38.955 15.5603 39.0878 15.4232 39.1529C15.4232 39.0851 15.2888 39.0851 15.2888 39.0201C15.4232 39.0201 15.3574 38.8872 15.4232 38.7544C15.3546 38.7544 15.2888 38.6866 15.2202 38.6866C15.489 39.0201 15.0859 39.2207 14.8829 39.0851L14.8857 39.0905Z" fill="white"/>
<path d="M22.9016 26.6356C23.1045 26.7034 23.1704 26.9013 23.4419 26.9013C23.5762 26.7007 23.0387 26.7007 23.2389 26.5028C23.1704 26.5028 23.1704 26.435 23.1045 26.435C23.1731 26.435 23.1045 26.5678 23.1045 26.5678C23.036 26.6356 22.9016 26.5 22.9016 26.6356Z" fill="white"/>
<path d="M26.8781 23.0406C26.6094 23.0406 26.6094 23.2413 26.6752 23.4392C26.6066 23.4392 26.4722 23.4392 26.5408 23.5069C26.6752 23.4392 26.5408 23.6398 26.5408 23.7726H26.6094C26.6094 23.7049 26.6779 23.7049 26.6779 23.7049C26.6094 23.7049 26.5435 23.7049 26.6094 23.6371C27.0125 23.5042 26.6779 23.3714 26.8781 23.0379V23.0406Z" fill="white"/>
<path d="M29.0335 22.6394C28.8991 22.3737 28.6304 22.7072 28.6304 22.7072C28.6989 22.6394 28.7647 22.7072 28.8333 22.7072V22.9728C28.8333 22.84 28.8333 22.7722 29.0362 22.6394H29.0335Z" fill="white"/>
<path d="M26.2719 20.5762C26.1375 20.644 25.9346 20.7768 25.8688 20.5762H26.2719Z" fill="white"/>
<path d="M25.8662 20.5762C25.7976 20.709 25.7318 20.709 25.7318 20.8419L25.8662 20.5762Z" fill="white"/>
<path d="M28.359 28.2352C28.2904 28.2352 28.0902 28.1023 28.0902 28.368C28.4275 28.5009 28.4275 28.4358 28.5619 28.1674C28.4933 27.9668 28.4275 28.2352 28.359 28.2352Z" fill="white"/>
<path d="M28.5619 21.4411C28.6304 21.5739 28.6304 21.6417 28.5619 21.7745C28.8992 21.9751 28.8992 21.5088 28.5619 21.4411Z" fill="white"/>
<path d="M26.3379 20.8419C26.5408 20.709 26.6066 20.9747 26.8096 20.9747C26.8781 20.5762 26.4065 20.5084 26.3379 20.8419Z" fill="white"/>
<path d="M28.0217 25.3044L27.6185 25.9036C27.9558 25.8358 28.156 25.5701 28.0217 25.3044Z" fill="white"/>
<path d="M24.9914 24.3067L24.9229 24.5073C25.2602 24.773 25.2602 23.9733 24.9914 24.3067Z" fill="white"/>
<path d="M27.7528 22.5743L28.0901 22.7072C28.0216 22.4415 27.9557 22.3086 27.7528 22.5743Z" fill="white"/>
<path d="M28.2904 22.9729C28.3589 22.9051 28.2904 22.7722 28.4248 22.7722L28.156 22.7045C28.156 22.7722 28.2246 22.9051 28.2904 22.9701V22.9729Z" fill="white"/>
<path d="M27.0782 22.3737L27.4814 22.5065C27.4128 22.3737 27.2784 22.2408 27.0782 22.3737Z" fill="white"/>
<path d="M27.6843 22.6394C27.6843 22.5716 27.7529 22.5716 27.7529 22.5065L27.5499 22.4388C27.5499 22.5065 27.6185 22.5716 27.6843 22.6394Z" fill="white"/>
<path d="M15.8976 37.3581C16.1005 37.2904 16.3693 37.0247 16.1663 36.824L15.8976 37.3581Z" fill="white"/>
<path d="M24.3853 22.108L24.8569 22.2408C24.7226 22.0402 24.5882 22.1731 24.3853 22.108Z" fill="white"/>
<path d="M9.22821 33.896C9.22821 34.0289 9.29677 34.0289 9.36258 34.1617C9.36258 34.1617 9.36258 34.0939 9.43114 34.0939C9.38544 34.0487 9.36258 33.9819 9.36258 33.8933C9.29402 33.8933 9.36258 33.9611 9.29402 34.0261C9.29402 33.9376 9.27117 33.8933 9.22546 33.8933L9.22821 33.896Z" fill="white"/>
<path d="M10.7118 26.1693C10.7804 26.2371 10.9805 26.3699 10.9805 26.435C11.1149 26.3021 10.8462 26.1693 10.7118 26.1693Z" fill="white"/>
<path d="M10.24 26.3699C10.24 26.2371 10.3743 26.3699 10.3743 26.1693C10.3058 26.1693 10.3058 26.2371 10.3058 26.2371C10.3058 26.1693 10.2372 26.1042 10.3058 26.0364C10.1714 26.1042 10.1029 26.3021 10.2372 26.3699H10.24Z" fill="white"/>
<path d="M11.9238 23.9055C12.0134 23.8603 12.1259 23.816 12.2612 23.7726C12.1268 23.6398 12.3297 23.7049 12.3955 23.6398C12.327 23.3063 12.1926 23.6398 11.9924 23.6398V23.7726C11.9238 23.7726 11.9238 23.7049 11.858 23.7726C11.9924 23.8404 11.9266 23.8404 11.9266 23.9055H11.9238Z" fill="white"/>
<path d="M10.7118 24.1712C10.8462 24.304 11.0491 24.1712 11.0491 24.0383C10.9805 24.0383 10.9147 24.1061 10.9147 24.0383C10.9147 23.9706 10.9833 24.0383 11.0491 23.9706C10.9805 23.7699 10.9147 23.9706 10.7804 23.9706C10.7118 24.1034 10.8489 24.1712 10.7118 24.1712Z" fill="white"/>
<path d="M11.7895 23.1735C12.0583 23.2413 11.9924 22.7749 11.7209 22.9078C11.7895 22.9756 11.8553 22.9078 11.9239 23.0406C11.8553 23.0406 11.8553 23.1735 11.7895 23.1735Z" fill="white"/>
<path d="M13.8079 22.0402C13.8764 22.0402 13.8764 22.1731 13.8764 22.1731C13.8079 22.3737 14.1452 21.9074 13.8079 22.0402Z" fill="white"/>
<path d="M12.3955 22.3737C12.327 22.3737 12.1926 22.2408 12.1926 22.1731H12.124C12.124 22.3059 12.1926 22.1731 12.2584 22.2408C12.1898 22.3737 12.3928 22.4415 12.3928 22.5743C12.3928 22.5743 12.3242 22.5065 12.3928 22.3737V22.5743H12.4613C12.3928 22.5743 12.4613 22.5065 12.3928 22.3737H12.3955Z" fill="white"/>
<path d="M12.1926 22.108C12.2612 22.108 12.1926 22.0402 12.2612 22.0402C12.2612 22.1288 12.306 22.1731 12.3956 22.1731C12.3956 22.0402 12.1268 21.8396 12.1926 22.1053V22.108Z" fill="white"/>
<path d="M14.5512 20.4434C14.5512 20.5111 14.6855 20.3756 14.5512 20.4434C14.6197 20.5111 14.6855 20.4434 14.6855 20.5111C14.6855 20.5789 14.617 20.5111 14.617 20.5789C14.617 20.6467 14.6855 20.6467 14.7513 20.6467C14.7513 20.5139 14.7513 20.4461 14.6828 20.5139C14.6828 20.4461 14.6828 20.381 14.8172 20.381C14.8172 20.3132 14.7486 20.3132 14.7486 20.3132C14.68 20.3132 14.68 20.381 14.68 20.381C14.6115 20.381 14.68 20.2482 14.6115 20.2482C14.6115 20.381 14.4771 20.3159 14.5429 20.4488L14.5512 20.4434Z" fill="white"/>
<path d="M11.3835 21.3082C11.4521 21.2404 11.5179 21.376 11.5179 21.376L11.7209 21.2431C11.6523 21.2431 11.4521 21.1754 11.3835 21.3109V21.3082Z" fill="white"/>
<path d="M11.5181 20.644C11.5181 20.7118 11.5866 20.644 11.6524 20.644V20.7768C11.6067 20.7768 11.5839 20.7994 11.5839 20.8446L11.6524 20.9124C11.9212 20.7118 11.721 20.4461 11.5181 20.6467V20.644Z" fill="white"/>
<path d="M12.3956 19.443H12.4642C12.3956 19.2423 12.3298 19.443 12.1954 19.3752C12.1954 19.5758 12.264 19.4429 12.3298 19.6409C12.3984 19.5731 12.3298 19.5731 12.3984 19.508C12.4669 19.4402 12.4669 19.5758 12.3984 19.4402L12.3956 19.443Z" fill="white"/>
<path d="M9.76834 34.1617C9.69978 34.2946 9.49959 34.2295 9.43103 34.2295C9.49959 34.3623 9.63397 34.3623 9.56541 34.563C9.69978 34.4952 9.69978 34.8287 9.76834 34.6307C9.76834 34.6985 9.76834 34.7636 9.8369 34.6985C9.8369 34.5657 9.90546 34.6307 9.97128 34.5657C9.8369 34.4979 9.8369 34.4328 9.90272 34.365C9.76834 34.365 9.83416 34.1644 9.76834 34.1644V34.1617Z" fill="white"/>
<path d="M11.7209 33.1613C11.7894 33.2291 11.7894 33.2941 11.8553 33.2941C11.8553 33.2264 11.9238 33.0284 12.0582 33.0935C11.9896 33.1613 11.9238 33.1613 11.9238 33.2264C12.1268 33.1586 12.1926 33.2264 12.1926 33.0257C12.124 33.0257 12.124 33.0935 12.124 33.0257C12.1926 32.958 12.0555 32.8251 12.124 32.76C11.9896 32.6923 12.0555 32.6272 11.9211 32.6923C11.9211 32.8251 12.0555 32.8251 11.9896 32.958H11.9211C11.9896 32.8902 11.9211 32.8902 11.9211 32.7573C11.8754 32.7573 11.8306 32.7799 11.7867 32.8251C11.9896 32.8929 11.8553 33.1586 11.7181 33.1586L11.7209 33.1613Z" fill="white"/>
<path d="M11.3179 30.3661C11.3179 30.499 11.2493 30.4339 11.3179 30.499C11.2493 30.5667 11.2493 30.499 11.1835 30.499C11.1149 30.6318 11.3179 30.7647 11.3864 30.5667C11.3179 30.5667 11.3179 30.4339 11.3179 30.3661Z" fill="white"/>
<path d="M10.24 28.6337V28.7015C10.24 28.8343 10.1056 28.9672 10.24 29.1C10.1715 29.0322 10.3744 29.0322 10.3086 29.1C10.3771 29.0322 10.3771 28.8994 10.3771 28.8343C10.5801 29.035 10.5115 28.368 10.2428 28.6337H10.24Z" fill="white"/>
<path d="M11.5181 24.1712C11.6524 24.1034 11.721 24.239 11.8554 24.1034C11.8554 23.9706 11.5866 24.1712 11.6524 23.9706H11.5839L11.6524 24.0383C11.5839 24.1061 11.5181 24.1061 11.5181 24.1712Z" fill="white"/>
<path d="M10.2401 22.1731C10.3087 22.0402 10.3087 22.2409 10.3745 22.2409C10.306 22.1731 10.306 22.108 10.306 21.9752C10.2374 21.9752 10.103 22.0429 10.103 22.108L10.2374 22.1758L10.2401 22.1731Z" fill="white"/>
<path d="M12.2584 20.9748C12.1241 21.0425 12.1899 21.1754 12.2584 21.2405C12.2584 21.2405 12.1899 21.3082 12.2584 21.3082C12.327 21.2405 12.2584 21.376 12.327 21.4411H12.3955V21.3733H12.327C12.4614 21.1727 12.2584 21.1727 12.2584 20.9748Z" fill="white"/>
<path d="M13.1359 20.0421C13.0015 19.9744 12.933 20.2428 12.933 20.2428C12.933 20.175 13.0015 20.175 13.0015 20.175C13.0015 20.2428 13.0701 20.3078 13.0701 20.3078C13.1387 20.175 13.0701 20.1072 13.1387 20.0421H13.1359Z" fill="white"/>
<path d="M11.1807 19.9771C11.1122 20.0448 11.1122 20.1777 10.9778 20.1099L11.1807 19.9771Z" fill="white"/>
<path d="M14.6169 22.9729C14.6169 22.9729 14.4825 23.0406 14.5483 23.1057C14.7512 23.0379 14.6827 23.0379 14.6827 22.84C14.6141 22.84 14.6141 22.9729 14.6141 22.9729H14.6169Z" fill="white"/>
<path d="M12.5957 19.5785C12.6414 19.6237 12.6643 19.668 12.6643 19.7114C12.8672 19.7114 12.7328 19.5107 12.5957 19.5785Z" fill="white"/>
<path d="M11.3179 20.0421C11.3864 19.9093 11.4522 19.9743 11.5866 19.9743C11.5181 19.7737 11.2493 19.9066 11.3179 20.0421Z" fill="white"/>
<path d="M13.5391 21.6417V22.0402C13.6734 21.9725 13.6734 21.7745 13.5391 21.6417Z" fill="white"/>
<path d="M11.7896 22.2408V22.3737C12.0583 22.4415 11.8581 22.0402 11.7896 22.2408Z" fill="white"/>
<path d="M10.7775 21.7095C10.7775 21.7773 10.846 21.7773 10.846 21.7773L10.7775 21.7095Z" fill="white"/>
<path d="M12.53 20.4434L12.733 20.3756C12.5986 20.3078 12.53 20.2427 12.53 20.4434Z" fill="white"/>
<path d="M12.933 20.4434C12.933 20.3756 12.8645 20.3756 12.933 20.3105L12.7301 20.3783C12.7987 20.3783 12.8645 20.4461 12.933 20.4461V20.4434Z" fill="white"/>
<path d="M12.124 20.5762L12.327 20.5084C12.327 20.4407 12.1926 20.4407 12.124 20.5762Z" fill="white"/>
<path d="M12.5299 20.5084V20.4407L12.3955 20.5084C12.3955 20.4407 12.4641 20.5084 12.5299 20.5084Z" fill="white"/>
<path d="M11.6524 31.8979C11.721 31.8301 11.7868 31.5644 11.5839 31.5644L11.6524 31.8979Z" fill="white"/>
<path d="M10.7775 21.376L11.0462 21.2431C10.9118 21.2431 10.9118 21.376 10.7775 21.376Z" fill="white"/>
<path d="M22.4299 15.116C22.5643 15.116 22.5643 15.0482 22.6328 14.9832L22.5643 14.9154C22.5186 14.9606 22.4509 14.9832 22.3613 14.9832C22.3613 15.0509 22.4299 14.9832 22.4299 15.0509C22.4299 15.0509 22.3613 15.0509 22.4299 15.1187V15.116Z" fill="white"/>
<path d="M15.2915 13.0501C15.3601 12.9823 15.4944 12.7844 15.5603 12.7844C15.4259 12.5838 15.2915 12.8522 15.2915 13.0501Z" fill="white"/>
<path d="M15.4259 13.5164C15.2915 13.5164 15.4259 13.3836 15.2915 13.3836C15.2915 13.4514 15.36 13.4514 15.36 13.4514C15.2915 13.4514 15.2257 13.5191 15.1571 13.4514C15.1571 13.5842 15.36 13.652 15.4259 13.5191V13.5164Z" fill="white"/>
<path d="M13.2704 11.5861C13.2247 11.4524 13.2018 11.3195 13.2018 11.1876C13.0674 11.3204 13.1333 11.1198 13.0674 11.0547C12.7987 11.1225 13.0674 11.3204 13.0674 11.4533H13.2018C13.2018 11.521 13.1333 11.521 13.1333 11.5861C13.2018 11.5183 13.2018 11.5861 13.2676 11.5861H13.2704Z" fill="white"/>
<path d="M13.4047 12.9173C13.5391 12.7844 13.4733 12.5838 13.3361 12.5187C13.3361 12.5865 13.4047 12.6516 13.3361 12.6516C13.2676 12.5838 13.3361 12.5838 13.3361 12.5187C13.2018 12.5865 13.3361 12.6516 13.2676 12.8522C13.3361 12.8522 13.402 12.7844 13.402 12.92L13.4047 12.9173Z" fill="white"/>
<path d="M12.5958 11.6539C12.7302 11.3882 12.1927 11.3882 12.3271 11.7217C12.3956 11.6539 12.3271 11.521 12.4614 11.521C12.4614 11.5888 12.53 11.5888 12.5958 11.6539Z" fill="white"/>
<path d="M11.5866 9.45515C11.5866 9.38737 11.721 9.38737 11.721 9.38737C11.9239 9.45515 11.5181 9.12168 11.5866 9.45515Z" fill="white"/>
<path d="M11.8553 10.9869C11.8553 11.0547 11.7209 11.1876 11.6523 11.1876V11.3204C11.7209 11.3204 11.6523 11.2526 11.7209 11.1876C11.8553 11.3204 11.9238 11.0547 12.0582 11.0547C12.0582 10.9869 11.9238 11.0547 11.8553 10.9869H12.0582V10.9192C11.9897 10.9869 11.9238 10.9192 11.8553 10.9869Z" fill="white"/>
<path d="M11.5866 11.1198C11.5866 11.052 11.518 11.052 11.518 11.052C11.6076 11.052 11.6524 11.0077 11.6524 10.9192C11.518 10.9192 11.3151 11.1849 11.5839 11.1198H11.5866Z" fill="white"/>
<path d="M10.1715 8.59028C10.1029 8.38966 10.2401 8.5225 10.1715 8.59028C10.2401 8.5225 10.1715 8.45744 10.2401 8.45744C10.3086 8.45744 10.2401 8.52521 10.2401 8.52521C10.3086 8.52521 10.3086 8.45744 10.3086 8.39237C10.1742 8.39237 10.1057 8.39237 10.1742 8.46015C10.1285 8.46015 10.1057 8.41586 10.1057 8.3273C10.0371 8.3273 10.0371 8.39508 10.0371 8.39508C10.0371 8.46286 10.1057 8.46286 10.1057 8.46286C10.1057 8.53064 9.97131 8.46286 9.97131 8.53064C10.1742 8.46286 10.0399 8.66348 10.1742 8.59841L10.1715 8.59028Z" fill="white"/>
<path d="M10.7776 11.9846C10.7776 11.9168 10.8462 11.8518 10.8462 11.784L10.7776 11.5834C10.7776 11.7162 10.6432 11.9168 10.7776 11.9819V11.9846Z" fill="white"/>
<path d="M10.103 11.7867C10.1715 11.7867 10.103 11.7189 10.103 11.6539H10.2374C10.2374 11.6991 10.2602 11.7217 10.3059 11.7217C10.3059 11.7217 10.3059 11.6539 10.3745 11.6539C10.2401 11.3882 9.97134 11.521 10.1057 11.7867H10.103Z" fill="white"/>
<path d="M9.09371 10.7212V10.6535C8.95933 10.7212 9.09371 10.7863 9.02515 10.9191C9.22808 10.9869 9.09371 10.8514 9.2939 10.7863C9.22534 10.6535 9.22534 10.7863 9.15952 10.7185C9.09096 10.7185 9.22808 10.7185 9.09096 10.7185C9.09096 10.7863 9.15952 10.7185 9.09096 10.7185L9.09371 10.7212Z" fill="white"/>
<path d="M22.7014 14.6497C22.8358 14.7175 22.7014 14.9154 22.7014 14.9831C22.8358 14.9154 22.8358 14.7825 23.0387 14.8503C22.9702 14.7175 23.3075 14.7175 23.1073 14.6497C23.1758 14.6497 23.2417 14.6497 23.1758 14.5819C23.0415 14.5819 23.1073 14.5141 23.0415 14.4491C22.9729 14.5819 22.9071 14.5819 22.8385 14.5168C22.9071 14.6497 22.7042 14.5168 22.7042 14.6497H22.7014Z" fill="white"/>
<path d="M21.8924 12.4509C21.961 12.3832 22.0268 12.3832 22.0268 12.3181C21.9583 12.3181 21.7581 12.2503 21.8924 12.1175C21.961 12.1853 21.8924 12.2503 22.0268 12.2503C21.9583 12.0497 22.0268 11.9846 21.8924 11.9169C21.8924 11.9846 21.961 11.9846 21.8924 11.9846C21.8239 11.9169 21.6895 12.0524 21.6895 11.9169C21.6209 12.0497 21.5551 11.9846 21.6209 12.1175C21.7553 12.1175 21.7553 11.9846 21.8239 12.0497V12.1825C21.7553 12.1148 21.7553 12.1825 21.6895 12.1825V12.3154C21.6895 12.1825 21.8924 12.3154 21.8924 12.4482V12.4509Z" fill="white"/>
<path d="M19.2651 12.7193C19.3337 12.7193 19.3337 12.7871 19.3995 12.7193C19.4681 12.7871 19.3995 12.7871 19.331 12.8522C19.3995 12.92 19.5997 12.7193 19.3995 12.5865C19.3995 12.6543 19.2651 12.6543 19.2651 12.7193Z" fill="white"/>
<path d="M17.5128 13.717H17.5814C17.65 13.717 17.7843 13.9177 17.9187 13.7848C17.8501 13.8526 17.8501 13.652 17.9187 13.717C17.8501 13.6493 17.7843 13.6493 17.7158 13.6493C17.9187 13.3836 17.3126 13.4486 17.5128 13.717Z" fill="white"/>
<path d="M13.4734 11.9846C13.4048 11.8518 13.5419 11.7189 13.4734 11.6512C13.339 11.6512 13.5419 11.9168 13.339 11.8518V11.9196C13.339 11.8518 13.4075 11.8518 13.4075 11.8518C13.4075 11.9196 13.4075 12.0524 13.4761 11.9846H13.4734Z" fill="white"/>
<path d="M11.5181 13.183C11.3837 13.1152 11.5866 13.1152 11.5866 13.0501C11.5181 13.1179 11.4522 13.1179 11.3179 13.1179C11.3179 13.1857 11.3179 13.3185 11.3864 13.3185L11.5208 13.1857L11.5181 13.183Z" fill="white"/>
<path d="M10.5088 11.052C10.5773 11.1848 10.7117 11.1198 10.7775 11.052C10.7775 11.052 10.8461 11.1848 10.8461 11.052C10.7775 10.9842 10.9147 11.052 10.9805 10.9842V10.9164H10.9119V10.9842C10.709 10.7836 10.709 11.052 10.5088 11.052Z" fill="white"/>
<path d="M9.69981 9.98653C9.63125 10.1194 9.83419 10.1872 9.83419 10.1872C9.76563 10.1872 9.76563 10.1194 9.76563 10.0543C9.83419 10.0543 9.83419 9.98653 9.90001 9.98653C9.83145 10.0543 9.76563 10.0543 9.69707 9.98653H9.69981Z" fill="white"/>
<path d="M9.49695 12.0524C9.56551 12.1202 9.69988 12.1853 9.63132 12.253L9.49695 12.0524Z" fill="white"/>
<path d="M9.63391 12.253C9.70247 12.253 9.76829 12.3208 9.83685 12.253H9.63391Z" fill="white"/>
<path d="M12.5957 8.65535C12.5957 8.65535 12.5957 8.85598 12.7301 8.72313C12.7301 8.52251 12.6615 8.52251 12.4613 8.52251C12.3928 8.65535 12.5299 8.65535 12.5957 8.65535Z" fill="white"/>
<path d="M9.22801 10.5884C9.27372 10.5432 9.31851 10.5206 9.36239 10.5206C9.36239 10.2549 9.15945 10.3878 9.22801 10.5884Z" fill="white"/>
<path d="M9.63401 11.9846C9.49964 11.9168 9.63401 11.784 9.56545 11.7189C9.2967 11.7189 9.43108 11.9846 9.63401 11.9846Z" fill="white"/>
<path d="M11.2493 9.72083L11.6524 9.78861C11.518 9.58799 11.3151 9.58799 11.2493 9.72083Z" fill="white"/>
<path d="M11.7209 11.5861H11.8553C11.8553 11.3204 11.4522 11.5183 11.7209 11.5861Z" fill="white"/>
<path d="M11.0463 12.6516C11.092 12.6516 11.1148 12.629 11.1148 12.5838L11.0463 12.6516Z" fill="white"/>
<path d="M10.0371 10.7212L9.96853 10.5206C9.89998 10.5884 9.83416 10.6535 10.0371 10.7212Z" fill="white"/>
<path d="M10.0371 10.32C9.96853 10.32 9.96853 10.3878 9.90271 10.32L9.97127 10.5206C9.97127 10.3878 10.0398 10.32 10.0398 10.32H10.0371Z" fill="white"/>
<path d="M10.103 11.1198L10.0344 10.8541C10.0344 10.9219 10.0344 10.9869 10.103 11.1198Z" fill="white"/>
<path d="M10.103 10.7212H10.0344L10.103 10.8541C10.0344 10.7863 10.103 10.7212 10.103 10.7212Z" fill="white"/>
<path d="M20.7461 12.4509C20.6776 12.3832 20.4088 12.3181 20.4088 12.4509H20.7461Z" fill="white"/>
<path d="M10.8461 12.5838L10.7775 12.2503C10.6432 12.4509 10.7775 12.4509 10.8461 12.5838Z" fill="white"/>
<path d="M139.812 19.2234C142.724 16.1926 142.722 12.1742 142.719 7.52204V6.59608H137.341V7.52919C137.342 11.2911 137.343 14.0091 135.944 15.4651C134.613 16.8504 131.676 17.6638 126.975 17.9453L126.973 6.59608L121.595 6.59787V7.14487C121.595 7.14487 121.6 23.1132 121.6 28.5107C121.408 28.5107 121.206 28.5107 121.012 28.5089H120.99C120.763 28.5071 120.523 28.5054 120.266 28.5054H119.719V33.9154H120.266C120.51 33.9154 120.741 33.9163 120.956 33.9181C121.135 33.919 121.311 33.9199 121.482 33.9199C123.11 33.9199 124.551 33.826 125.701 32.6748C126.823 31.5514 126.978 30.0632 126.978 28.6224V23.3625C129.277 23.2356 131.237 23.0041 132.919 22.6323C134.398 22.3061 135.983 21.6751 136.093 21.6492L132.9 24.0087L140.272 34.4231L144.649 31.2796L137.405 21.0441C138.341 20.531 139.132 19.9313 139.813 19.2234H139.812Z" fill="#181818"/>
<path d="M116.566 33.8466V28.4026H116.016C111.331 28.4026 108.067 27.4087 106.038 25.3646C102.49 21.7904 102.848 14.5722 103.143 11.772H113.131L118.73 11.7559L118.763 6.33421L96.0226 6.32796V11.772H102.749L97.7744 13.337L97.7547 13.5149C97.7217 13.9698 97.0209 23.9855 102.165 29.1677C105.291 32.3164 109.822 33.8475 116.016 33.8475H116.567L116.566 33.8466Z" fill="#181818"/>
<path d="M186.947 34.424V28.8897H186.387C181.625 28.8897 178.307 27.8797 176.245 25.8017C175.567 25.1197 174.992 24.2554 174.527 23.2258H183.114V17.6915H173.225C173.026 15.3355 173.179 13.1663 173.303 11.9838H183.275L189 11.9919V6.45488L165.993 6.44862V11.9829H172.925L167.848 13.5738L167.842 13.6972C167.835 13.7848 167.7 15.0405 167.915 17.6897H165.993V23.224H168.86C169.629 25.9688 170.787 28.1344 172.308 29.6655C175.486 32.867 180.093 34.4231 186.389 34.4231H186.949L186.947 34.424Z" fill="#181818"/>
<path d="M165.288 28.3534H158.484V11.7666H163.668V6.32707H147.79V11.7666H158.076L153.047 13.3084V28.3534H146.17V33.7921H165.288V28.3534Z" fill="#181818"/>
<path d="M52.02 6.32707V11.7461H67.5789L62.6417 13.2825L62.6283 13.329C62.4969 17.7147 61.9794 21.9995 59.096 24.9106C57.615 26.4059 55.5701 27.3837 52.8601 27.8904V24.3931H47.4697V33.7143H48.0176C54.721 33.7143 59.593 32.0859 62.9107 28.736C67.0471 24.562 67.9749 18.9169 68.0187 11.7461H70.3327V6.32707H52.02Z" fill="#181818"/>
<path d="M92.3091 20.5561C90.1854 15.3909 89.5088 11.5736 89.5088 11.5736H94.0323V6.32707H72.7004V11.5736H81.5613L76.3622 13.0984C76.3622 13.0984 75.8554 15.8012 73.8873 20.5561C71.2212 26.9958 68.6971 31.2493 68.6971 31.2493L73.6773 33.3407C73.6773 33.3407 74.8008 31.4021 76.2201 28.5036C77.391 26.1118 78.1882 24.1285 78.1882 24.1285H88.0073C88.0073 24.1285 88.8045 26.1118 89.9754 28.5036C91.3947 31.4012 92.5182 33.3407 92.5182 33.3407L97.4984 31.2493C97.4984 31.2493 94.9582 27.0029 92.3082 20.5561H92.3091ZM83.2247 18.9678H80.0071C80.0071 18.9678 80.7221 16.6091 80.9697 15.7475C81.2539 14.7599 82.1119 11.5736 82.1119 11.5736H84.0854C84.0854 11.5736 84.9434 14.7608 85.2276 15.7475C85.4761 16.6091 86.1902 18.9678 86.1902 18.9678H83.2238H83.2247Z" fill="#181818"/>
</svg>
